GoogleSansCode-Regular.ufo
<glyph name="numbersign" format="2">
  <advance width="1200"/>
  <unicode hex="0023"/>
  <outline>
    <contour>
      <point x="624" y="-17" type="line"/>
      <point x="777" y="-17" type="line"/>
      <point x="986" y="1449" type="line"/>
      <point x="833" y="1449" type="line"/>
    </contour>
    <contour>
      <point x="214" y="-17" type="line"/>
      <point x="367" y="-17" type="line"/>
      <point x="576" y="1449" type="line"/>
      <point x="423" y="1449" type="line"/>
    </contour>
    <contour>
      <point x="43" y="366" type="line"/>
      <point x="1081" y="366" type="line"/>
      <point x="1081" y="516" type="line"/>
      <point x="43" y="516" type="line"/>
    </contour>
    <contour>
      <point x="116" y="916" type="line"/>
      <point x="1157" y="916" type="line"/>
      <point x="1157" y="1066" type="line"/>
      <point x="116" y="1066" type="line"/>
    </contour>
  </outline>
</glyph>
<glyph name="dollar" format="2">
  <advance width="1200"/>
  <unicode hex="0024"/>
  <outline>
    <contour>
      <point x="617" y="0" type="curve" smooth="yes"/>
      <point x="889" y="0"/>
      <point x="1064" y="145"/>
      <point x="1064" y="379" type="curve" smooth="yes"/>
      <point x="1064" y="394" type="line" smooth="yes"/>
      <point x="1064" y="581"/>
      <point x="971" y="704"/>
      <point x="748" y="790" type="curve" smooth="yes"/>
      <point x="546" y="868" type="line" smooth="yes"/>
      <point x="409" y="921"/>
      <point x="358" y="977"/>
      <point x="358" y="1078" type="curve" smooth="yes"/>
      <point x="358" y="1087" type="line" smooth="yes"/>
      <point x="358" y="1208"/>
      <point x="448" y="1278"/>
      <point x="607" y="1278" type="curve" smooth="yes"/>
      <point x="744" y="1278"/>
      <point x="827" y="1218"/>
      <point x="880" y="1083" type="curve"/>
      <point x="1043" y="1150" type="line"/>
      <point x="976" y="1336"/>
      <point x="829" y="1432"/>
      <point x="608" y="1432" type="curve" smooth="yes"/>
      <point x="349" y="1432"/>
      <point x="179" y="1295"/>
      <point x="179" y="1084" type="curve" smooth="yes"/>
      <point x="179" y="1068" type="line" smooth="yes"/>
      <point x="179" y="906"/>
      <point x="280" y="790"/>
      <point x="476" y="714" type="curve" smooth="yes"/>
      <point x="678" y="636" type="line" smooth="yes"/>
      <point x="827" y="578"/>
      <point x="881" y="509"/>
      <point x="881" y="388" type="curve" smooth="yes"/>
      <point x="881" y="377" type="line" smooth="yes"/>
      <point x="881" y="237"/>
      <point x="785" y="154"/>
      <point x="621" y="154" type="curve" smooth="yes"/>
      <point x="447" y="154"/>
      <point x="341" y="242"/>
      <point x="296" y="421" type="curve"/>
      <point x="128" y="366" type="line"/>
      <point x="186" y="134"/>
      <point x="362" y="0"/>
    </contour>
    <contour>
      <point x="542" y="-236" type="line"/>
      <point x="684" y="-236" type="line"/>
      <point x="684" y="62" type="line"/>
      <point x="678" y="99" type="line"/>
      <point x="678" y="736" type="line"/>
      <point x="548" y="736" type="line"/>
      <point x="548" y="99" type="line"/>
      <point x="542" y="62" type="line"/>
    </contour>
    <contour>
      <point x="548" y="759" type="line"/>
      <point x="678" y="759" type="line"/>
      <point x="678" y="1339" type="line"/>
      <point x="684" y="1381" type="line"/>
      <point x="684" y="1668" type="line"/>
      <point x="542" y="1668" type="line"/>
      <point x="542" y="1381" type="line"/>
      <point x="548" y="1339" type="line"/>
    </contour>
  </outline>
</glyph>
<glyph name="percent" format="2">
  <advance width="1200"/>
  <unicode hex="0025"/>
  <outline>
    <contour>
      <point x="132" y="254" type="line"/>
      <point x="1172" y="1049" type="line"/>
      <point x="1069" y="1178" type="line"/>
      <point x="28" y="383" type="line"/>
    </contour>
    <contour>
      <point x="868" y="-32" type="curve" smooth="yes"/>
      <point x="1036" y="-32"/>
      <point x="1166" y="102"/>
      <point x="1166" y="277" type="curve" smooth="yes"/>
      <point x="1166" y="285" type="line" smooth="yes"/>
      <point x="1166" y="460"/>
      <point x="1036" y="595"/>
      <point x="868" y="595" type="curve" smooth="yes"/>
      <point x="700" y="595"/>
      <point x="570" y="460"/>
      <point x="570" y="285" type="curve" smooth="yes"/>
      <point x="570" y="277" type="line" smooth="yes"/>
      <point x="570" y="102"/>
      <point x="700" y="-32"/>
    </contour>
    <contour>
      <point x="868" y="116" type="curve" smooth="yes"/>
      <point x="783" y="116"/>
      <point x="724" y="183"/>
      <point x="724" y="279" type="curve" smooth="yes"/>
      <point x="724" y="283" type="line" smooth="yes"/>
      <point x="724" y="379"/>
      <point x="784" y="447"/>
      <point x="868" y="447" type="curve" smooth="yes"/>
      <point x="952" y="447"/>
      <point x="1012" y="379"/>
      <point x="1012" y="283" type="curve" smooth="yes"/>
      <point x="1012" y="279" type="line" smooth="yes"/>
      <point x="1012" y="183"/>
      <point x="953" y="116"/>
    </contour>
    <contour>
      <point x="332" y="837" type="curve" smooth="yes"/>
      <point x="500" y="837"/>
      <point x="630" y="971"/>
      <point x="630" y="1146" type="curve" smooth="yes"/>
      <point x="630" y="1154" type="line" smooth="yes"/>
      <point x="630" y="1329"/>
      <point x="500" y="1464"/>
      <point x="332" y="1464" type="curve" smooth="yes"/>
      <point x="164" y="1464"/>
      <point x="34" y="1329"/>
      <point x="34" y="1154" type="curve" smooth="yes"/>
      <point x="34" y="1146" type="line" smooth="yes"/>
      <point x="34" y="971"/>
      <point x="164" y="837"/>
    </contour>
    <contour>
      <point x="332" y="985" type="curve" smooth="yes"/>
      <point x="247" y="985"/>
      <point x="188" y="1052"/>
      <point x="188" y="1148" type="curve" smooth="yes"/>
      <point x="188" y="1152" type="line" smooth="yes"/>
      <point x="188" y="1248"/>
      <point x="247" y="1316"/>
      <point x="332" y="1316" type="curve" smooth="yes"/>
      <point x="417" y="1316"/>
      <point x="476" y="1248"/>
      <point x="476" y="1152" type="curve" smooth="yes"/>
      <point x="476" y="1148" type="line" smooth="yes"/>
      <point x="476" y="1052"/>
      <point x="417" y="985"/>
    </contour>
  </outline>
</glyph>
<glyph name="ampersand" format="2">
  <advance width="1200"/>
  <unicode hex="0026"/>
  <outline>
    <contour>
      <point x="1054" y="-50" type="line"/>
      <point x="1182" y="74" type="line"/>
      <point x="505" y="797" type="line" smooth="yes"/>
      <point x="376" y="934"/>
      <point x="332" y="1015"/>
      <point x="332" y="1099" type="curve" smooth="yes"/>
      <point x="332" y="1109" type="line" smooth="yes"/>
      <point x="332" y="1219"/>
      <point x="408" y="1288"/>
      <point x="528" y="1288" type="curve" smooth="yes"/>
      <point x="641" y="1288"/>
      <point x="714" y="1234"/>
      <point x="783" y="1100" type="curve"/>
      <point x="945" y="1186" type="line"/>
      <point x="846" y="1380"/>
      <point x="721" y="1464"/>
      <point x="532" y="1464" type="curve" smooth="yes"/>
      <point x="303" y="1464"/>
      <point x="144" y="1319"/>
      <point x="144" y="1111" type="curve" smooth="yes"/>
      <point x="144" y="1109" type="line" smooth="yes"/>
      <point x="144" y="976"/>
      <point x="202" y="866"/>
      <point x="384" y="670" type="curve" smooth="yes"/>
    </contour>
    <contour>
      <point x="477" y="-32" type="curve" smooth="yes"/>
      <point x="777" y="-32"/>
      <point x="992" y="253"/>
      <point x="1100" y="794" type="curve"/>
      <point x="918" y="826" type="line"/>
      <point x="825" y="328"/>
      <point x="707" y="140"/>
      <point x="488" y="140" type="curve" smooth="yes"/>
      <point x="329" y="140"/>
      <point x="236" y="230"/>
      <point x="236" y="383" type="curve" smooth="yes"/>
      <point x="236" y="411" type="line" smooth="yes"/>
      <point x="236" y="568"/>
      <point x="317" y="669"/>
      <point x="483" y="720" type="curve"/>
      <point x="370" y="843" type="line"/>
      <point x="156" y="755"/>
      <point x="50" y="609"/>
      <point x="50" y="398" type="curve" smooth="yes"/>
      <point x="50" y="380" type="line" smooth="yes"/>
      <point x="50" y="134"/>
      <point x="222" y="-32"/>
    </contour>
  </outline>
</glyph>
<glyph name="comma" format="2">
  <advance width="1200"/>
  <unicode hex="002C"/>
  <outline>
    <contour>
      <point x="494" y="-349" type="line"/>
      <point x="699" y="-63" type="line" smooth="yes"/>
      <point x="748" y="5"/>
      <point x="776" y="67"/>
      <point x="776" y="131" type="curve" smooth="yes"/>
      <point x="776" y="240"/>
      <point x="706" y="303"/>
      <point x="610" y="303" type="curve" smooth="yes"/>
      <point x="517" y="303"/>
      <point x="451" y="233"/>
      <point x="451" y="147" type="curve" smooth="yes"/>
      <point x="451" y="53"/>
      <point x="525" y="-6"/>
      <point x="615" y="-6" type="curve"/>
      <point x="616" y="49" type="line"/>
      <point x="378" y="-271" type="line"/>
    </contour>
  </outline>
</glyph>
<glyph name="period" format="2">
  <advance width="1200"/>
  <unicode hex="002E"/>
  <outline>
    <contour>
      <point x="599" y="-29" type="curve" smooth="yes"/>
      <point x="693" y="-29"/>
      <point x="764" y="42"/>
      <point x="764" y="135" type="curve" smooth="yes"/>
      <point x="764" y="225"/>
      <point x="693" y="297"/>
      <point x="599" y="297" type="curve" smooth="yes"/>
      <point x="508" y="297"/>
      <point x="435" y="225"/>
      <point x="435" y="135" type="curve" smooth="yes"/>
      <point x="435" y="42"/>
      <point x="507" y="-29"/>
    </contour>
  </outline>
</glyph>
<glyph name="slash" format="2">
  <advance width="1200"/>
  <unicode hex="002F"/>
  <outline>
    <contour>
      <point x="110" y="-176" type="line"/>
      <point x="298" y="-176" type="line"/>
      <point x="1090" y="1460" type="line"/>
      <point x="902" y="1460" type="line"/>
    </contour>
  </outline>
</glyph>
<glyph name="one" format="2">
  <advance width="1200"/>
  <unicode hex="0031"/>
  <outline>
    <contour>
      <point x="580" y="80" type="line"/>
      <point x="770" y="80" type="line"/>
      <point x="770" y="1432" type="line"/>
      <point x="641" y="1432" type="line"/>
      <point x="149" y="1171" type="line"/>
      <point x="235" y="1012" type="line"/>
      <point x="580" y="1197" type="line"/>
    </contour>
    <contour>
      <point x="206" y="0" type="line"/>
      <point x="1106" y="0" type="line"/>
      <point x="1106" y="180" type="line"/>
      <point x="206" y="180" type="line"/>
    </contour>
  </outline>
</glyph>
<glyph name="three" format="2">
  <advance width="1200"/>
  <unicode hex="0033"/>
  <outline>
    <contour>
      <point x="622" y="-31" type="curve" smooth="yes"/>
      <point x="882" y="-31"/>
      <point x="1068" y="138"/>
      <point x="1068" y="372" type="curve" smooth="yes"/>
      <point x="1068" y="391" type="line" smooth="yes"/>
      <point x="1068" y="568"/>
      <point x="962" y="705"/>
      <point x="786" y="743" type="curve"/>
      <point x="786" y="749" type="line"/>
      <point x="944" y="798"/>
      <point x="1027" y="912"/>
      <point x="1027" y="1075" type="curve" smooth="yes"/>
      <point x="1027" y="1085" type="line" smooth="yes"/>
      <point x="1027" y="1310"/>
      <point x="860" y="1463"/>
      <point x="614" y="1463" type="curve" smooth="yes"/>
      <point x="390" y="1463"/>
      <point x="216" y="1343"/>
      <point x="145" y="1138" type="curve"/>
      <point x="317" y="1081" type="line"/>
      <point x="364" y="1214"/>
      <point x="467" y="1288"/>
      <point x="608" y="1288" type="curve" smooth="yes"/>
      <point x="751" y="1288"/>
      <point x="839" y="1204"/>
      <point x="839" y="1075" type="curve" smooth="yes"/>
      <point x="839" y="1056" type="line" smooth="yes"/>
      <point x="839" y="912"/>
      <point x="735" y="825"/>
      <point x="563" y="825" type="curve" smooth="yes"/>
      <point x="439" y="825" type="line"/>
      <point x="439" y="649" type="line"/>
      <point x="583" y="649" type="line" smooth="yes"/>
      <point x="774" y="649"/>
      <point x="881" y="559"/>
      <point x="881" y="406" type="curve" smooth="yes"/>
      <point x="881" y="380" type="line" smooth="yes"/>
      <point x="881" y="238"/>
      <point x="774" y="145"/>
      <point x="613" y="145" type="curve" smooth="yes"/>
      <point x="448" y="145"/>
      <point x="328" y="234"/>
      <point x="285" y="391" type="curve"/>
      <point x="113" y="339" type="line"/>
      <point x="174" y="108"/>
      <point x="363" y="-31"/>
    </contour>
  </outline>
</glyph>
<glyph name="six" format="2">
  <advance width="1200"/>
  <unicode hex="0036"/>
  <outline>
    <contour>
      <point x="599" y="-30" type="curve" smooth="yes"/>
      <point x="878" y="-30"/>
      <point x="1077" y="168"/>
      <point x="1077" y="444" type="curve" smooth="yes"/>
      <point x="1077" y="464" type="line" smooth="yes"/>
      <point x="1077" y="726"/>
      <point x="902" y="922"/>
      <point x="661" y="922" type="curve" smooth="yes"/>
      <point x="571" y="922"/>
      <point x="490" y="895"/>
      <point x="422" y="845" type="curve"/>
      <point x="417" y="852" type="line"/>
      <point x="474" y="903"/>
      <point x="522" y="952"/>
      <point x="579" y="1023" type="curve" smooth="yes"/>
      <point x="855" y="1364" type="line"/>
      <point x="701" y="1476" type="line"/>
      <point x="341" y="996" type="line" smooth="yes"/>
      <point x="186" y="790"/>
      <point x="123" y="638"/>
      <point x="123" y="472" type="curve" smooth="yes"/>
      <point x="123" y="452" type="line" smooth="yes"/>
      <point x="123" y="170"/>
      <point x="320" y="-30"/>
    </contour>
    <contour>
      <point x="599" y="148" type="curve" smooth="yes"/>
      <point x="426" y="148"/>
      <point x="311" y="266"/>
      <point x="311" y="439" type="curve" smooth="yes"/>
      <point x="311" y="469" type="line" smooth="yes"/>
      <point x="311" y="643"/>
      <point x="427" y="762"/>
      <point x="601" y="762" type="curve" smooth="yes"/>
      <point x="775" y="762"/>
      <point x="889" y="644"/>
      <point x="889" y="469" type="curve" smooth="yes"/>
      <point x="889" y="439" type="line" smooth="yes"/>
      <point x="889" y="266"/>
      <point x="774" y="148"/>
    </contour>
  </outline>
</glyph>
<glyph name="seven" format="2">
  <advance width="1200"/>
  <unicode hex="0037"/>
  <outline>
    <contour>
      <point x="426" y="-32" type="line"/>
      <point x="1064" y="1273" type="line"/>
      <point x="1064" y="1432" type="line"/>
      <point x="136" y="1432" type="line"/>
      <point x="136" y="1252" type="line"/>
      <point x="845" y="1252" type="line"/>
      <point x="845" y="1247" type="line"/>
      <point x="254" y="48" type="line"/>
    </contour>
  </outline>
</glyph>
<glyph name="colon" format="2">
  <advance width="1200"/>
  <unicode hex="003A"/>
  <outline>
    <contour>
      <point x="599" y="752" type="curve" smooth="yes"/>
      <point x="693" y="752"/>
      <point x="764" y="823"/>
      <point x="764" y="916" type="curve" smooth="yes"/>
      <point x="764" y="1006"/>
      <point x="693" y="1078"/>
      <point x="599" y="1078" type="curve" smooth="yes"/>
      <point x="509" y="1078"/>
      <point x="436" y="1006"/>
      <point x="436" y="916" type="curve" smooth="yes"/>
      <point x="436" y="823"/>
      <point x="508" y="752"/>
    </contour>
    <contour>
      <point x="599" y="-30" type="curve" smooth="yes"/>
      <point x="693" y="-30"/>
      <point x="764" y="41"/>
      <point x="764" y="134" type="curve" smooth="yes"/>
      <point x="764" y="224"/>
      <point x="693" y="296"/>
      <point x="599" y="296" type="curve" smooth="yes"/>
      <point x="509" y="296"/>
      <point x="436" y="224"/>
      <point x="436" y="134" type="curve" smooth="yes"/>
      <point x="436" y="41"/>
      <point x="508" y="-30"/>
    </contour>
  </outline>
</glyph>
<glyph name="equal" format="2">
  <advance width="1200"/>
  <unicode hex="003D"/>
  <outline>
    <contour>
      <point x="130" y="763" type="line"/>
      <point x="1070" y="763" type="line"/>
      <point x="1070" y="935" type="line"/>
      <point x="130" y="935" type="line"/>
    </contour>
    <contour>
      <point x="130" y="317" type="line"/>
      <point x="1070" y="317" type="line"/>
      <point x="1070" y="489" type="line"/>
      <point x="130" y="489" type="line"/>
    </contour>
  </outline>
</glyph>
<glyph name="A" format="2">
  <advance width="1200"/>
  <unicode hex="0041"/>
  <anchor x="600" y="23" name="bottom"/>
  <anchor x="1143" y="0" name="ogonek"/>
  <anchor x="602" y="1432" name="top"/>
  <outline>
    <contour>
      <point x="58" y="0" type="line"/>
      <point x="252" y="0" type="line"/>
      <point x="555" y="1063" type="line"/>
      <point x="596" y="1218" type="line"/>
      <point x="602" y="1218" type="line"/>
      <point x="642" y="1063" type="line"/>
      <point x="947" y="0" type="line"/>
      <point x="1143" y="0" type="line"/>
      <point x="700" y="1432" type="line"/>
      <point x="503" y="1432" type="line"/>
    </contour>
    <contour>
      <point x="254" y="369" type="line"/>
      <point x="945" y="369" type="line"/>
      <point x="892" y="536" type="line"/>
      <point x="306" y="536" type="line"/>
    </contour>
  </outline>
</glyph>
<glyph name="D" format="2">
  <advance width="1200"/>
  <unicode hex="0044"/>
  <anchor x="565" y="1432" name="top"/>
  <outline>
    <contour>
      <point x="140" y="0" type="line"/>
      <point x="518" y="0" type="line" smooth="yes"/>
      <point x="881" y="0"/>
      <point x="1096" y="260"/>
      <point x="1096" y="697" type="curve" smooth="yes"/>
      <point x="1096" y="735" type="line" smooth="yes"/>
      <point x="1096" y="1172"/>
      <point x="881" y="1432"/>
      <point x="518" y="1432" type="curve" smooth="yes"/>
      <point x="140" y="1432" type="line"/>
    </contour>
    <contour>
      <point x="324" y="174" type="line"/>
      <point x="324" y="1258" type="line"/>
      <point x="512" y="1258" type="line" smooth="yes"/>
      <point x="772" y="1258"/>
      <point x="906" y="1081"/>
      <point x="906" y="740" type="curve" smooth="yes"/>
      <point x="906" y="692" type="line" smooth="yes"/>
      <point x="906" y="351"/>
      <point x="772" y="174"/>
      <point x="512" y="174" type="curve" smooth="yes"/>
    </contour>
  </outline>
</glyph>
<glyph name="E" format="2">
  <advance width="1200"/>
  <unicode hex="0045"/>
  <anchor x="597" y="0" name="bottom"/>
  <anchor x="1010" y="0" name="ogonek"/>
  <anchor x="589" y="1432" name="top"/>
  <outline>
    <contour>
      <point x="184" y="0" type="line"/>
      <point x="1010" y="0" type="line"/>
      <point x="1010" y="174" type="line"/>
      <point x="370" y="174" type="line"/>
      <point x="370" y="1258" type="line"/>
      <point x="994" y="1258" type="line"/>
      <point x="994" y="1432" type="line"/>
      <point x="184" y="1432" type="line"/>
    </contour>
    <contour>
      <point x="292" y="647" type="line"/>
      <point x="914" y="647" type="line"/>
      <point x="914" y="821" type="line"/>
      <point x="292" y="821" type="line"/>
    </contour>
  </outline>
</glyph>
<glyph name="G" format="2">
  <advance width="1200"/>
  <unicode hex="0047"/>
  <anchor x="647" y="0" name="bottom"/>
  <anchor x="649" y="1432" name="top"/>
  <outline>
    <contour>
      <point x="646" y="-32" type="curve" smooth="yes"/>
      <point x="956" y="-32"/>
      <point x="1138" y="190"/>
      <point x="1138" y="570" type="curve" smooth="yes"/>
      <point x="1138" y="779" type="line"/>
      <point x="627" y="779" type="line"/>
      <point x="627" y="606" type="line"/>
      <point x="958" y="606" type="line"/>
      <point x="958" y="553" type="line" smooth="yes"/>
      <point x="958" y="286"/>
      <point x="850" y="144"/>
      <point x="647" y="144" type="curve" smooth="yes"/>
      <point x="407" y="144"/>
      <point x="274" y="337"/>
      <point x="274" y="687" type="curve" smooth="yes"/>
      <point x="274" y="731" type="line" smooth="yes"/>
      <point x="274" y="1087"/>
      <point x="410" y="1288"/>
      <point x="651" y="1288" type="curve" smooth="yes"/>
      <point x="790" y="1288"/>
      <point x="883" y="1219"/>
      <point x="935" y="1078" type="curve"/>
      <point x="1103" y="1153" type="line"/>
      <point x="1025" y="1356"/>
      <point x="868" y="1464"/>
      <point x="647" y="1464" type="curve" smooth="yes"/>
      <point x="295" y="1464"/>
      <point x="86" y="1190"/>
      <point x="86" y="726" type="curve" smooth="yes"/>
      <point x="86" y="692" type="line" smooth="yes"/>
      <point x="86" y="238"/>
      <point x="296" y="-32"/>
    </contour>
  </outline>
</glyph>
<glyph name="H" format="2">
  <advance width="1200"/>
  <unicode hex="0048"/>
  <outline>
    <contour>
      <point x="854" y="0" type="line"/>
      <point x="1040" y="0" type="line"/>
      <point x="1040" y="1432" type="line"/>
      <point x="854" y="1432" type="line"/>
    </contour>
    <contour>
      <point x="160" y="0" type="line"/>
      <point x="346" y="0" type="line"/>
      <point x="346" y="1432" type="line"/>
      <point x="160" y="1432" type="line"/>
    </contour>
    <contour>
      <point x="265" y="646" type="line"/>
      <point x="937" y="646" type="line"/>
      <point x="937" y="820" type="line"/>
      <point x="265" y="820" type="line"/>
    </contour>
  </outline>
</glyph>
<glyph name="K" format="2">
  <advance width="1200"/>
  <unicode hex="004B"/>
  <anchor x="634" y="0" name="bottom"/>
  <outline>
    <contour>
      <point x="922" y="0" type="line"/>
      <point x="1150" y="0" type="line"/>
      <point x="526" y="766" type="line"/>
      <point x="526" y="690" type="line"/>
      <point x="1127" y="1432" type="line"/>
      <point x="903" y="1432" type="line"/>
      <point x="341" y="725" type="line"/>
      <point x="341" y="719" type="line"/>
    </contour>
    <contour>
      <point x="160" y="0" type="line"/>
      <point x="346" y="0" type="line"/>
      <point x="346" y="1432" type="line"/>
      <point x="160" y="1432" type="line"/>
    </contour>
  </outline>
</glyph>
<glyph name="L" format="2">
  <advance width="1200"/>
  <unicode hex="004C"/>
  <anchor x="632" y="0" name="bottom"/>
  <anchor x="291" y="1432" name="top"/>
  <outline>
    <contour>
      <point x="198" y="0" type="line"/>
      <point x="1066" y="0" type="line"/>
      <point x="1066" y="176" type="line"/>
      <point x="384" y="176" type="line"/>
      <point x="384" y="1432" type="line"/>
      <point x="198" y="1432" type="line"/>
    </contour>
  </outline>
</glyph>
<glyph name="Q" format="2">
  <advance width="1200"/>
  <unicode hex="0051"/>
  <outline>
    <contour>
      <point x="597" y="-16" type="curve" smooth="yes"/>
      <point x="924" y="-16"/>
      <point x="1124" y="259"/>
      <point x="1124" y="697" type="curve" smooth="yes"/>
      <point x="1124" y="735" type="line" smooth="yes"/>
      <point x="1124" y="1187"/>
      <point x="924" y="1464"/>
      <point x="600" y="1464" type="curve" smooth="yes"/>
      <point x="276" y="1464"/>
      <point x="76" y="1187"/>
      <point x="76" y="735" type="curve" smooth="yes"/>
      <point x="76" y="697" type="line" smooth="yes"/>
      <point x="76" y="259"/>
      <point x="279" y="-16"/>
    </contour>
    <contour>
      <point x="1042" y="-378" type="curve" smooth="yes"/>
      <point x="1094" y="-378"/>
      <point x="1139" y="-369"/>
      <point x="1183" y="-350" type="curve"/>
      <point x="1142" y="-178" type="line"/>
      <point x="1112" y="-191"/>
      <point x="1082" y="-198"/>
      <point x="1048" y="-198" type="curve" smooth="yes"/>
      <point x="964" y="-198"/>
      <point x="915" y="-164"/>
      <point x="820" y="-43" type="curve" smooth="yes"/>
      <point x="733" y="68"/>
      <point x="638" y="120"/>
      <point x="511" y="120" type="curve" smooth="yes"/>
      <point x="321" y="120"/>
      <point x="191" y="-5"/>
      <point x="157" y="-231" type="curve"/>
      <point x="348" y="-263" type="line"/>
      <point x="371" y="-104"/>
      <point x="423" y="-31"/>
      <point x="513" y="-31" type="curve" smooth="yes"/>
      <point x="587" y="-31"/>
      <point x="629" y="-62"/>
      <point x="719" y="-185" type="curve" smooth="yes"/>
      <point x="820" y="-323"/>
      <point x="912" y="-378"/>
    </contour>
    <contour>
      <point x="600" y="126" type="curve" smooth="yes"/>
      <point x="388" y="126"/>
      <point x="266" y="329"/>
      <point x="266" y="691" type="curve" smooth="yes"/>
      <point x="266" y="739" type="line" smooth="yes"/>
      <point x="266" y="1089"/>
      <point x="388" y="1288"/>
      <point x="600" y="1288" type="curve" smooth="yes"/>
      <point x="812" y="1288"/>
      <point x="934" y="1089"/>
      <point x="934" y="739" type="curve" smooth="yes"/>
      <point x="934" y="691" type="line" smooth="yes"/>
      <point x="934" y="329"/>
      <point x="812" y="126"/>
    </contour>
  </outline>
</glyph>
<glyph name="S" format="2">
  <advance width="1200"/>
  <unicode hex="0053"/>
  <anchor x="638" y="0" name="bottom"/>
  <anchor x="621" y="1432" name="top"/>
  <outline>
    <contour>
      <point x="641" y="-32" type="curve" smooth="yes"/>
      <point x="917" y="-32"/>
      <point x="1102" y="127"/>
      <point x="1102" y="366" type="curve" smooth="yes"/>
      <point x="1102" y="374" type="line" smooth="yes"/>
      <point x="1102" y="577"/>
      <point x="994" y="707"/>
      <point x="751" y="792" type="curve" smooth="yes"/>
      <point x="554" y="861" type="line" smooth="yes"/>
      <point x="417" y="909"/>
      <point x="357" y="973"/>
      <point x="357" y="1071" type="curve" smooth="yes"/>
      <point x="357" y="1083" type="line" smooth="yes"/>
      <point x="357" y="1208"/>
      <point x="462" y="1289"/>
      <point x="621" y="1289" type="curve" smooth="yes"/>
      <point x="778" y="1289"/>
      <point x="876" y="1224"/>
      <point x="926" y="1083" type="curve"/>
      <point x="1098" y="1148" type="line"/>
      <point x="1023" y="1356"/>
      <point x="859" y="1464"/>
      <point x="620" y="1464" type="curve" smooth="yes"/>
      <point x="353" y="1464"/>
      <point x="171" y="1306"/>
      <point x="171" y="1073" type="curve" smooth="yes"/>
      <point x="171" y="1066" type="line" smooth="yes"/>
      <point x="171" y="890"/>
      <point x="273" y="762"/>
      <point x="474" y="692" type="curve" smooth="yes"/>
      <point x="671" y="623" type="line" smooth="yes"/>
      <point x="846" y="562"/>
      <point x="916" y="491"/>
      <point x="916" y="378" type="curve" smooth="yes"/>
      <point x="916" y="361" type="line" smooth="yes"/>
      <point x="916" y="225"/>
      <point x="812" y="143"/>
      <point x="638" y="143" type="curve" smooth="yes"/>
      <point x="455" y="143"/>
      <point x="326" y="237"/>
      <point x="263" y="419" type="curve"/>
      <point x="90" y="356" type="line"/>
      <point x="173" y="112"/>
      <point x="377" y="-32"/>
    </contour>
  </outline>
</glyph>
<glyph name="U" format="2">
  <advance width="1200"/>
  <unicode hex="0055"/>
  <anchor x="600" y="-32" name="bottom"/>
  <anchor x="859" y="0" name="ogonek"/>
  <anchor x="600" y="1432" name="top"/>
  <outline>
    <contour>
      <point x="600" y="-32" type="curve" smooth="yes"/>
      <point x="873" y="-32"/>
      <point x="1058" y="163"/>
      <point x="1058" y="447" type="curve" smooth="yes"/>
      <point x="1058" y="1432" type="line"/>
      <point x="872" y="1432" type="line"/>
      <point x="872" y="458" type="line" smooth="yes"/>
      <point x="872" y="265"/>
      <point x="769" y="144"/>
      <point x="600" y="144" type="curve" smooth="yes"/>
      <point x="432" y="144"/>
      <point x="328" y="265"/>
      <point x="328" y="458" type="curve" smooth="yes"/>
      <point x="328" y="1432" type="line"/>
      <point x="142" y="1432" type="line"/>
      <point x="142" y="447" type="line" smooth="yes"/>
      <point x="142" y="163"/>
      <point x="327" y="-32"/>
    </contour>
  </outline>
</glyph>
<glyph name="V" format="2">
  <advance width="1200"/>
  <unicode hex="0056"/>
  <outline>
    <contour>
      <point x="507" y="0" type="line"/>
      <point x="693" y="0" type="line"/>
      <point x="1140" y="1432" type="line"/>
      <point x="946" y="1432" type="line"/>
      <point x="642" y="389" type="line"/>
      <point x="605" y="215" type="line"/>
      <point x="599" y="215" type="line"/>
      <point x="563" y="389" type="line"/>
      <point x="256" y="1432" type="line"/>
      <point x="60" y="1432" type="line"/>
    </contour>
  </outline>
</glyph>
<glyph name="W" format="2">
  <advance width="1200"/>
  <unicode hex="0057"/>
  <guideline x="889" y="594" angle="83.3973"/>
  <anchor x="599" y="1432" name="top"/>
  <outline>
    <contour>
      <point x="224" y="0" type="line"/>
      <point x="390" y="0" type="line"/>
      <point x="558" y="680" type="line"/>
      <point x="597" y="884" type="line"/>
      <point x="603" y="884" type="line"/>
      <point x="642" y="680" type="line"/>
      <point x="812" y="0" type="line"/>
      <point x="977" y="0" type="line"/>
      <point x="1169" y="1432" type="line"/>
      <point x="985" y="1432" type="line"/>
      <point x="864" y="303" type="line"/>
      <point x="858" y="303" type="line"/>
      <point x="805" y="594" type="line"/>
      <point x="671" y="1150" type="line"/>
      <point x="529" y="1150" type="line"/>
      <point x="395" y="594" type="line"/>
      <point x="342" y="303" type="line"/>
      <point x="336" y="303" type="line"/>
      <point x="213" y="1432" type="line"/>
      <point x="31" y="1432" type="line"/>
    </contour>
  </outline>
</glyph>
<glyph name="X" format="2">
  <advance width="1200"/>
  <unicode hex="0058"/>
  <outline>
    <contour>
      <point x="940" y="0" type="line"/>
      <point x="1152" y="0" type="line"/>
      <point x="692" y="773" type="line"/>
      <point x="666" y="784" type="line"/>
      <point x="280" y="1432" type="line"/>
      <point x="68" y="1432" type="line"/>
      <point x="511" y="691" type="line"/>
      <point x="537" y="680" type="line"/>
    </contour>
    <contour>
      <point x="48" y="0" type="line"/>
      <point x="254" y="0" type="line"/>
      <point x="664" y="680" type="line"/>
      <point x="686" y="699" type="line"/>
      <point x="1132" y="1432" type="line"/>
      <point x="926" y="1432" type="line"/>
      <point x="541" y="794" type="line"/>
      <point x="519" y="775" type="line"/>
    </contour>
  </outline>
</glyph>
<glyph name="bracketright" format="2">
  <advance width="1200"/>
  <unicode hex="005D"/>
  <outline>
    <contour>
      <point x="178" y="-255" type="line"/>
      <point x="848" y="-255" type="line"/>
      <point x="848" y="1585" type="line"/>
      <point x="178" y="1585" type="line"/>
      <point x="178" y="1431" type="line"/>
      <point x="664" y="1431" type="line"/>
      <point x="664" y="-101" type="line"/>
      <point x="178" y="-101" type="line"/>
    </contour>
  </outline>
</glyph>
<glyph name="asciicircum" format="2">
  <advance width="1200"/>
  <unicode hex="005E"/>
  <outline>
    <contour>
      <point x="86" y="675" type="line"/>
      <point x="286" y="675" type="line"/>
      <point x="595" y="1223" type="line"/>
      <point x="602" y="1223" type="line"/>
      <point x="914" y="675" type="line"/>
      <point x="1114" y="675" type="line"/>
      <point x="672" y="1432" type="line"/>
      <point x="528" y="1432" type="line"/>
    </contour>
  </outline>
</glyph>
<glyph name="grave" format="2">
  <advance width="1200"/>
  <unicode hex="0060"/>
  <outline>
    <contour>
      <point x="621" y="882" type="line"/>
      <point x="817" y="882" type="line"/>
      <point x="565" y="1460" type="line"/>
      <point x="309" y="1460" type="line"/>
    </contour>
  </outline>
</glyph>
<glyph name="a" format="2">
  <advance width="1200"/>
  <unicode hex="0061"/>
  <anchor x="614" y="-32" name="bottom"/>
  <anchor x="1007" y="0" name="ogonek"/>
  <anchor x="600" y="1047" name="top"/>
  <outline>
    <contour>
      <point x="525" y="-32" type="curve" smooth="yes"/>
      <point x="666" y="-32"/>
      <point x="769" y="37"/>
      <point x="831" y="152" type="curve"/>
      <point x="838" y="152" type="line"/>
      <point x="838" y="0" type="line"/>
      <point x="1007" y="0" type="line"/>
      <point x="1007" y="688" type="line" smooth="yes"/>
      <point x="1007" y="926"/>
      <point x="859" y="1079"/>
      <point x="600" y="1079" type="curve" smooth="yes"/>
      <point x="444" y="1079"/>
      <point x="314" y="1026"/>
      <point x="216" y="921" type="curve"/>
      <point x="329" y="801" type="line"/>
      <point x="405" y="878"/>
      <point x="494" y="919"/>
      <point x="599" y="919" type="curve" smooth="yes"/>
      <point x="754" y="919"/>
      <point x="830" y="829"/>
      <point x="830" y="683" type="curve" smooth="yes"/>
      <point x="830" y="432" type="line" smooth="yes"/>
      <point x="830" y="253"/>
      <point x="719" y="124"/>
      <point x="558" y="124" type="curve" smooth="yes"/>
      <point x="429" y="124"/>
      <point x="346" y="195"/>
      <point x="346" y="314" type="curve" smooth="yes"/>
      <point x="346" y="324" type="line" smooth="yes"/>
      <point x="346" y="449"/>
      <point x="442" y="525"/>
      <point x="593" y="525" type="curve" smooth="yes"/>
      <point x="692" y="525"/>
      <point x="776" y="502"/>
      <point x="846" y="457" type="curve"/>
      <point x="846" y="597" type="line"/>
      <point x="771" y="642"/>
      <point x="672" y="669"/>
      <point x="561" y="669" type="curve" smooth="yes"/>
      <point x="321" y="669"/>
      <point x="162" y="532"/>
      <point x="162" y="317" type="curve" smooth="yes"/>
      <point x="162" y="302" type="line" smooth="yes"/>
      <point x="162" y="106"/>
      <point x="310" y="-32"/>
    </contour>
  </outline>
</glyph>
<glyph name="c" format="2">
  <advance width="1200"/>
  <unicode hex="0063"/>
  <anchor x="673" y="0" name="bottom"/>
  <anchor x="660" y="1047" name="top"/>
  <outline>
    <contour>
      <point x="674" y="-31" type="curve" smooth="yes"/>
      <point x="854" y="-31"/>
      <point x="998" y="55"/>
      <point x="1091" y="216" type="curve"/>
      <point x="945" y="309" type="line"/>
      <point x="878" y="192"/>
      <point x="791" y="138"/>
      <point x="672" y="138" type="curve" smooth="yes"/>
      <point x="478" y="138"/>
      <point x="353" y="281"/>
      <point x="353" y="502" type="curve" smooth="yes"/>
      <point x="353" y="544" type="line" smooth="yes"/>
      <point x="353" y="771"/>
      <point x="471" y="910"/>
      <point x="660" y="910" type="curve" smooth="yes"/>
      <point x="778" y="910"/>
      <point x="861" y="851"/>
      <point x="914" y="740" type="curve"/>
      <point x="1065" y="826" type="line"/>
      <point x="982" y="989"/>
      <point x="853" y="1078"/>
      <point x="660" y="1078" type="curve" smooth="yes"/>
      <point x="367" y="1078"/>
      <point x="169" y="860"/>
      <point x="169" y="537" type="curve" smooth="yes"/>
      <point x="169" y="511" type="line" smooth="yes"/>
      <point x="169" y="187"/>
      <point x="371" y="-31"/>
    </contour>
  </outline>
</glyph>
<glyph name="m" format="2">
  <advance width="1200"/>
  <unicode hex="006D"/>
  <outline>
    <contour>
      <point x="102" y="0" type="line"/>
      <point x="281" y="0" type="line"/>
      <point x="281" y="712" type="line" smooth="yes"/>
      <point x="281" y="845"/>
      <point x="337" y="918"/>
      <point x="415" y="918" type="curve" smooth="yes"/>
      <point x="479" y="918"/>
      <point x="513" y="874"/>
      <point x="513" y="759" type="curve" smooth="yes"/>
      <point x="513" y="0" type="line"/>
      <point x="692" y="0" type="line"/>
      <point x="692" y="712" type="line" smooth="yes"/>
      <point x="692" y="845"/>
      <point x="748" y="918"/>
      <point x="826" y="918" type="curve" smooth="yes"/>
      <point x="891" y="918"/>
      <point x="925" y="875"/>
      <point x="925" y="760" type="curve" smooth="yes"/>
      <point x="925" y="0" type="line"/>
      <point x="1104" y="0" type="line"/>
      <point x="1104" y="760" type="line" smooth="yes"/>
      <point x="1104" y="970"/>
      <point x="1029" y="1079"/>
      <point x="890" y="1079" type="curve" smooth="yes"/>
      <point x="779" y="1079"/>
      <point x="691" y="1000"/>
      <point x="655" y="860" type="curve"/>
      <point x="670" y="850" type="line"/>
      <point x="660" y="995"/>
      <point x="590" y="1079"/>
      <point x="480" y="1079" type="curve" smooth="yes"/>
      <point x="383" y="1079"/>
      <point x="311" y="1018"/>
      <point x="275" y="912" type="curve"/>
      <point x="268" y="912" type="line"/>
      <point x="268" y="1047" type="line"/>
      <point x="102" y="1047" type="line"/>
    </contour>
  </outline>
</glyph>
<glyph name="o" format="2">
  <advance width="1200"/>
  <unicode hex="006F"/>
  <anchor x="600" y="-32" name="bottom"/>
  <anchor x="831" y="23" name="ogonek"/>
  <anchor x="600" y="1047" name="top"/>
  <outline>
    <contour>
      <point x="600" y="-32" type="curve" smooth="yes"/>
      <point x="890" y="-32"/>
      <point x="1086" y="187"/>
      <point x="1086" y="510" type="curve" smooth="yes"/>
      <point x="1086" y="537" type="line" smooth="yes"/>
      <point x="1086" y="860"/>
      <point x="890" y="1079"/>
      <point x="600" y="1079" type="curve" smooth="yes"/>
      <point x="310" y="1079"/>
      <point x="114" y="860"/>
      <point x="114" y="537" type="curve" smooth="yes"/>
      <point x="114" y="510" type="line" smooth="yes"/>
      <point x="114" y="187"/>
      <point x="310" y="-32"/>
    </contour>
    <contour>
      <point x="600" y="136" type="curve" smooth="yes"/>
      <point x="414" y="136"/>
      <point x="300" y="279"/>
      <point x="300" y="513" type="curve" smooth="yes"/>
      <point x="300" y="534" type="line" smooth="yes"/>
      <point x="300" y="768"/>
      <point x="414" y="911"/>
      <point x="600" y="911" type="curve" smooth="yes"/>
      <point x="786" y="911"/>
      <point x="900" y="768"/>
      <point x="900" y="534" type="curve" smooth="yes"/>
      <point x="900" y="513" type="line" smooth="yes"/>
      <point x="900" y="279"/>
      <point x="786" y="136"/>
    </contour>
  </outline>
</glyph>
<glyph name="r" format="2">
  <advance width="1200"/>
  <unicode hex="0072"/>
  <anchor x="660" y="1047" name="top"/>
  <outline>
    <contour>
      <point x="371" y="60" type="line"/>
      <point x="547" y="60" type="line"/>
      <point x="547" y="546" type="line" smooth="yes"/>
      <point x="547" y="770"/>
      <point x="642" y="905"/>
      <point x="799" y="905" type="curve" smooth="yes"/>
      <point x="882" y="905"/>
      <point x="941" y="875"/>
      <point x="1003" y="801" type="curve"/>
      <point x="1134" y="947" type="line"/>
      <point x="1061" y="1039"/>
      <point x="983" y="1079"/>
      <point x="875" y="1079" type="curve" smooth="yes"/>
      <point x="726" y="1079"/>
      <point x="604" y="988"/>
      <point x="540" y="830" type="curve"/>
      <point x="531" y="830" type="line"/>
      <point x="531" y="1047" type="line"/>
      <point x="371" y="1047" type="line"/>
    </contour>
    <contour>
      <point x="120" y="0" type="line"/>
      <point x="887" y="0" type="line"/>
      <point x="887" y="147" type="line"/>
      <point x="120" y="147" type="line"/>
    </contour>
    <contour>
      <point x="140" y="900" type="line"/>
      <point x="456" y="900" type="line"/>
      <point x="456" y="1047" type="line"/>
      <point x="140" y="1047" type="line"/>
    </contour>
  </outline>
</glyph>
<glyph name="u" format="2">
  <advance width="1200"/>
  <unicode hex="0075"/>
  <anchor x="612" y="-32" name="bottom"/>
  <anchor x="1012" y="0" name="ogonek"/>
  <anchor x="592" y="1047" name="top"/>
  <outline>
    <contour>
      <point x="515" y="-32" type="curve" smooth="yes"/>
      <point x="660" y="-32"/>
      <point x="768" y="44"/>
      <point x="836" y="161" type="curve"/>
      <point x="843" y="161" type="line"/>
      <point x="843" y="0" type="line"/>
      <point x="1012" y="0" type="line"/>
      <point x="1012" y="1047" type="line"/>
      <point x="831" y="1047" type="line"/>
      <point x="831" y="439" type="line" smooth="yes"/>
      <point x="831" y="253"/>
      <point x="722" y="130"/>
      <point x="571" y="130" type="curve" smooth="yes"/>
      <point x="429" y="130"/>
      <point x="353" y="217"/>
      <point x="353" y="378" type="curve" smooth="yes"/>
      <point x="353" y="1047" type="line"/>
      <point x="172" y="1047" type="line"/>
      <point x="172" y="346" type="line" smooth="yes"/>
      <point x="172" y="110"/>
      <point x="305" y="-32"/>
    </contour>
  </outline>
</glyph>
<glyph name="v" format="2">
  <advance width="1200"/>
  <unicode hex="0076"/>
  <outline>
    <contour>
      <point x="506" y="0" type="line"/>
      <point x="694" y="0" type="line"/>
      <point x="1090" y="1047" type="line"/>
      <point x="896" y="1047" type="line"/>
      <point x="677" y="432" type="line"/>
      <point x="607" y="196" type="line"/>
      <point x="600" y="196" type="line"/>
      <point x="529" y="432" type="line"/>
      <point x="306" y="1047" type="line"/>
      <point x="110" y="1047" type="line"/>
    </contour>
  </outline>
</glyph>
<glyph name="w" format="2">
  <advance width="1200"/>
  <unicode hex="0077"/>
  <anchor x="602" y="1047" name="top"/>
  <outline>
    <contour>
      <point x="257" y="0" type="line"/>
      <point x="440" y="0" type="line"/>
      <point x="576" y="613" type="line"/>
      <point x="597" y="741" type="line"/>
      <point x="603" y="741" type="line"/>
      <point x="624" y="613" type="line"/>
      <point x="760" y="0" type="line"/>
      <point x="942" y="0" type="line"/>
      <point x="1168" y="1047" type="line"/>
      <point x="1000" y="1047" type="line"/>
      <point x="872" y="322" type="line"/>
      <point x="855" y="201" type="line"/>
      <point x="849" y="201" type="line"/>
      <point x="831" y="322" type="line"/>
      <point x="691" y="928" type="line"/>
      <point x="512" y="928" type="line"/>
      <point x="374" y="319" type="line"/>
      <point x="355" y="201" type="line"/>
      <point x="350" y="201" type="line"/>
      <point x="332" y="319" type="line"/>
      <point x="203" y="1047" type="line"/>
      <point x="32" y="1047" type="line"/>
    </contour>
  </outline>
</glyph>
<glyph name="y" format="2">
  <advance width="1200"/>
  <unicode hex="0079"/>
  <anchor x="917" y="0" name="bottom"/>
  <anchor x="616" y="1047" name="top"/>
  <outline>
    <contour>
      <point x="318" y="-442" type="curve" smooth="yes"/>
      <point x="475" y="-442"/>
      <point x="571" y="-366"/>
      <point x="640" y="-184" type="curve" smooth="yes"/>
      <point x="1105" y="1047" type="line"/>
      <point x="912" y="1047" type="line"/>
      <point x="693" y="432" type="line"/>
      <point x="601" y="120" type="line"/>
      <point x="574" y="120" type="line"/>
      <point x="480" y="-139" type="line" smooth="yes"/>
      <point x="445" y="-235"/>
      <point x="396" y="-274"/>
      <point x="312" y="-274" type="curve" smooth="yes"/>
      <point x="257" y="-274"/>
      <point x="209" y="-254"/>
      <point x="155" y="-210" type="curve"/>
      <point x="63" y="-351" type="line"/>
      <point x="136" y="-412"/>
      <point x="219" y="-442"/>
    </contour>
    <contour>
      <point x="561" y="-95" type="line"/>
      <point x="646" y="196" type="line"/>
      <point x="616" y="196" type="line"/>
      <point x="543" y="432" type="line"/>
      <point x="319" y="1047" type="line"/>
      <point x="124" y="1047" type="line"/>
    </contour>
  </outline>
</glyph>
<glyph name="z" format="2">
  <advance width="1200"/>
  <unicode hex="007A"/>
  <anchor x="606" y="1047" name="top"/>
  <outline>
    <contour>
      <point x="185" y="0" type="line"/>
      <point x="1015" y="0" type="line"/>
      <point x="1015" y="165" type="line"/>
      <point x="404" y="165" type="line"/>
      <point x="1003" y="897" type="line"/>
      <point x="1003" y="1047" type="line"/>
      <point x="209" y="1047" type="line"/>
      <point x="209" y="882" type="line"/>
      <point x="785" y="882" type="line"/>
      <point x="185" y="150" type="line"/>
    </contour>
  </outline>
</glyph>
<glyph name="bar" format="2">
  <advance width="1200"/>
  <unicode hex="007C"/>
  <outline>
    <contour>
      <point x="504" y="-346" type="line"/>
      <point x="696" y="-346" type="line"/>
      <point x="696" y="1778" type="line"/>
      <point x="504" y="1778" type="line"/>
    </contour>
  </outline>
</glyph>
<glyph name="braceright" format="2">
  <advance width="1200"/>
  <unicode hex="007D"/>
  <outline>
    <contour>
      <point x="370" y="-274" type="curve" smooth="yes"/>
      <point x="638" y="-274"/>
      <point x="764" y="-198"/>
      <point x="764" y="-35" type="curve" smooth="yes"/>
      <point x="764" y="30"/>
      <point x="742" y="86"/>
      <point x="691" y="153" type="curve" smooth="yes"/>
      <point x="638" y="222" type="line" smooth="yes"/>
      <point x="593" y="280"/>
      <point x="576" y="316"/>
      <point x="576" y="354" type="curve" smooth="yes"/>
      <point x="576" y="407"/>
      <point x="605" y="436"/>
      <point x="673" y="448" type="curve" smooth="yes"/>
      <point x="1070" y="517" type="line"/>
      <point x="1070" y="811" type="line"/>
      <point x="673" y="880" type="line" smooth="yes"/>
      <point x="605" y="892"/>
      <point x="576" y="921"/>
      <point x="576" y="974" type="curve" smooth="yes"/>
      <point x="576" y="1012"/>
      <point x="593" y="1048"/>
      <point x="638" y="1106" type="curve" smooth="yes"/>
      <point x="691" y="1175" type="line" smooth="yes"/>
      <point x="742" y="1242"/>
      <point x="764" y="1298"/>
      <point x="764" y="1363" type="curve" smooth="yes"/>
      <point x="764" y="1526"/>
      <point x="638" y="1602"/>
      <point x="370" y="1602" type="curve" smooth="yes"/>
      <point x="309" y="1602"/>
      <point x="249" y="1598"/>
      <point x="186" y="1591" type="curve"/>
      <point x="186" y="1444" type="line"/>
      <point x="235" y="1450"/>
      <point x="284" y="1453"/>
      <point x="327" y="1453" type="curve" smooth="yes"/>
      <point x="502" y="1453"/>
      <point x="582" y="1417"/>
      <point x="582" y="1339" type="curve" smooth="yes"/>
      <point x="582" y="1303"/>
      <point x="561" y="1261"/>
      <point x="515" y="1204" type="curve" smooth="yes"/>
      <point x="490" y="1173" type="line" smooth="yes"/>
      <point x="422" y="1089"/>
      <point x="396" y="1028"/>
      <point x="396" y="960" type="curve" smooth="yes"/>
      <point x="396" y="847"/>
      <point x="475" y="773"/>
      <point x="622" y="751" type="curve" smooth="yes"/>
      <point x="910" y="707" type="line"/>
      <point x="910" y="621" type="line"/>
      <point x="622" y="577" type="line" smooth="yes"/>
      <point x="475" y="555"/>
      <point x="396" y="481"/>
      <point x="396" y="368" type="curve" smooth="yes"/>
      <point x="396" y="300"/>
      <point x="422" y="239"/>
      <point x="490" y="155" type="curve" smooth="yes"/>
      <point x="515" y="124" type="line" smooth="yes"/>
      <point x="561" y="67"/>
      <point x="582" y="25"/>
      <point x="582" y="-11" type="curve" smooth="yes"/>
      <point x="582" y="-89"/>
      <point x="502" y="-125"/>
      <point x="327" y="-125" type="curve" smooth="yes"/>
      <point x="284" y="-125"/>
      <point x="235" y="-122"/>
      <point x="186" y="-116" type="curve"/>
      <point x="186" y="-263" type="line"/>
      <point x="249" y="-270"/>
      <point x="309" y="-274"/>
    </contour>
  </outline>
</glyph>
<glyph name="cent" format="2">
  <advance width="1200"/>
  <unicode hex="00A2"/>
  <outline>
    <contour>
      <point x="644" y="0" type="curve" smooth="yes"/>
      <point x="826" y="0"/>
      <point x="972" y="86"/>
      <point x="1066" y="247" type="curve"/>
      <point x="921" y="339" type="line"/>
      <point x="851" y="222"/>
      <point x="762" y="167"/>
      <point x="642" y="167" type="curve" smooth="yes"/>
      <point x="449" y="167"/>
      <point x="327" y="299"/>
      <point x="327" y="527" type="curve" smooth="yes"/>
      <point x="327" y="581" type="line" smooth="yes"/>
      <point x="327" y="809"/>
      <point x="445" y="942"/>
      <point x="635" y="942" type="curve" smooth="yes"/>
      <point x="761" y="942"/>
      <point x="845" y="886"/>
      <point x="905" y="768" type="curve"/>
      <point x="1059" y="848" type="line"/>
      <point x="966" y="1024"/>
      <point x="830" y="1109"/>
      <point x="635" y="1109" type="curve" smooth="yes"/>
      <point x="345" y="1109"/>
      <point x="145" y="891"/>
      <point x="145" y="573" type="curve" smooth="yes"/>
      <point x="145" y="537" type="line" smooth="yes"/>
      <point x="145" y="219"/>
      <point x="345" y="0"/>
    </contour>
    <contour>
      <point x="552" y="-226" type="line"/>
      <point x="698" y="-226" type="line"/>
      <point x="698" y="64" type="line"/>
      <point x="691" y="101" type="line"/>
      <point x="691" y="565" type="line"/>
      <point x="557" y="565" type="line"/>
      <point x="557" y="101" type="line"/>
      <point x="552" y="64" type="line"/>
    </contour>
    <contour>
      <point x="557" y="544" type="line"/>
      <point x="691" y="544" type="line"/>
      <point x="691" y="1008" type="line"/>
      <point x="698" y="1045" type="line"/>
      <point x="698" y="1335" type="line"/>
      <point x="552" y="1335" type="line"/>
      <point x="552" y="1045" type="line"/>
      <point x="557" y="1008" type="line"/>
    </contour>
  </outline>
</glyph>
<glyph name="section" format="2">
  <advance width="1200"/>
  <unicode hex="00A7"/>
  <outline>
    <contour>
      <point x="813" y="232" type="line"/>
      <point x="976" y="290"/>
      <point x="1070" y="407"/>
      <point x="1070" y="553" type="curve" smooth="yes"/>
      <point x="1070" y="721"/>
      <point x="982" y="832"/>
      <point x="795" y="898" type="curve" smooth="yes"/>
      <point x="566" y="979" type="line" smooth="yes"/>
      <point x="469" y="1013"/>
      <point x="428" y="1061"/>
      <point x="428" y="1139" type="curve" smooth="yes"/>
      <point x="428" y="1237"/>
      <point x="503" y="1295"/>
      <point x="625" y="1295" type="curve" smooth="yes"/>
      <point x="746" y="1295"/>
      <point x="826" y="1248"/>
      <point x="881" y="1143" type="curve"/>
      <point x="1028" y="1233" type="line"/>
      <point x="949" y="1384"/>
      <point x="811" y="1463"/>
      <point x="628" y="1463" type="curve" smooth="yes"/>
      <point x="404" y="1463"/>
      <point x="252" y="1330"/>
      <point x="252" y="1136" type="curve" smooth="yes"/>
      <point x="252" y="988"/>
      <point x="342" y="869"/>
      <point x="497" y="814" type="curve" smooth="yes"/>
      <point x="741" y="728" type="line" smooth="yes"/>
      <point x="857" y="687"/>
      <point x="900" y="637"/>
      <point x="900" y="544" type="curve" smooth="yes"/>
      <point x="900" y="445"/>
      <point x="834" y="362"/>
      <point x="725" y="321" type="curve"/>
    </contour>
    <contour>
      <point x="590" y="-213" type="curve" smooth="yes"/>
      <point x="803" y="-213"/>
      <point x="948" y="-83"/>
      <point x="948" y="108" type="curve" smooth="yes"/>
      <point x="948" y="257"/>
      <point x="858" y="373"/>
      <point x="702" y="428" type="curve" smooth="yes"/>
      <point x="458" y="514" type="line" smooth="yes"/>
      <point x="345" y="554"/>
      <point x="300" y="605"/>
      <point x="300" y="699" type="curve" smooth="yes"/>
      <point x="300" y="795"/>
      <point x="363" y="875"/>
      <point x="467" y="912" type="curve"/>
      <point x="387" y="1010" type="line"/>
      <point x="224" y="952"/>
      <point x="130" y="834"/>
      <point x="130" y="688" type="curve" smooth="yes"/>
      <point x="130" y="524"/>
      <point x="223" y="410"/>
      <point x="405" y="345" type="curve" smooth="yes"/>
      <point x="634" y="263" type="line" smooth="yes"/>
      <point x="734" y="227"/>
      <point x="772" y="184"/>
      <point x="772" y="107" type="curve" smooth="yes"/>
      <point x="772" y="11"/>
      <point x="703" y="-45"/>
      <point x="586" y="-45" type="curve" smooth="yes"/>
      <point x="462" y="-45"/>
      <point x="377" y="3"/>
      <point x="319" y="108" type="curve"/>
      <point x="172" y="19" type="line"/>
      <point x="254" y="-132"/>
      <point x="400" y="-213"/>
    </contour>
  </outline>
</glyph>
<glyph name="registered" format="2">
  <advance width="1200"/>
  <unicode hex="00AE"/>
  <outline>
    <contour>
      <point x="600" y="-30" type="curve" smooth="yes"/>
      <point x="961" y="-30"/>
      <point x="1192" y="237"/>
      <point x="1192" y="654" type="curve" smooth="yes"/>
      <point x="1192" y="779" type="line" smooth="yes"/>
      <point x="1192" y="1196"/>
      <point x="961" y="1463"/>
      <point x="600" y="1463" type="curve" smooth="yes"/>
      <point x="239" y="1463"/>
      <point x="8" y="1196"/>
      <point x="8" y="779" type="curve" smooth="yes"/>
      <point x="8" y="654" type="line" smooth="yes"/>
      <point x="8" y="237"/>
      <point x="239" y="-30"/>
    </contour>
    <contour>
      <point x="761" y="302" type="line"/>
      <point x="920" y="302" type="line"/>
      <point x="920" y="309" type="line"/>
      <point x="715" y="672" type="line"/>
      <point x="563" y="672" type="line"/>
    </contour>
    <contour>
      <point x="600" y="60" type="curve" smooth="yes"/>
      <point x="292" y="60"/>
      <point x="108" y="282"/>
      <point x="108" y="653" type="curve" smooth="yes"/>
      <point x="108" y="780" type="line" smooth="yes"/>
      <point x="108" y="1151"/>
      <point x="292" y="1373"/>
      <point x="600" y="1373" type="curve" smooth="yes"/>
      <point x="908" y="1373"/>
      <point x="1092" y="1151"/>
      <point x="1092" y="780" type="curve" smooth="yes"/>
      <point x="1092" y="653" type="line" smooth="yes"/>
      <point x="1092" y="282"/>
      <point x="908" y="60"/>
    </contour>
    <contour>
      <point x="338" y="302" type="line"/>
      <point x="472" y="302" type="line"/>
      <point x="472" y="1009" type="line"/>
      <point x="604" y="1009" type="line" smooth="yes"/>
      <point x="700" y="1009"/>
      <point x="756" y="961"/>
      <point x="756" y="881" type="curve" smooth="yes"/>
      <point x="756" y="865" type="line" smooth="yes"/>
      <point x="756" y="785"/>
      <point x="700" y="736"/>
      <point x="604" y="736" type="curve" smooth="yes"/>
      <point x="421" y="736" type="line"/>
      <point x="421" y="616" type="line"/>
      <point x="606" y="616" type="line" smooth="yes"/>
      <point x="778" y="616"/>
      <point x="891" y="718"/>
      <point x="891" y="871" type="curve" smooth="yes"/>
      <point x="891" y="882" type="line" smooth="yes"/>
      <point x="891" y="1040"/>
      <point x="782" y="1138"/>
      <point x="607" y="1138" type="curve" smooth="yes"/>
      <point x="338" y="1138" type="line"/>
    </contour>
  </outline>
</glyph>
<glyph name="plusminus" format="2">
  <advance width="1200"/>
  <unicode hex="00B1"/>
  <outline>
    <contour>
      <point x="150" y="0" type="line"/>
      <point x="1050" y="0" type="line"/>
      <point x="1050" y="176" type="line"/>
      <point x="150" y="176" type="line"/>
    </contour>
    <contour>
      <point x="141" y="625" type="line"/>
      <point x="1059" y="625" type="line"/>
      <point x="1059" y="791" type="line"/>
      <point x="141" y="791" type="line"/>
    </contour>
    <contour>
      <point x="512" y="282" type="line"/>
      <point x="688" y="282" type="line"/>
      <point x="688" y="1134" type="line"/>
      <point x="512" y="1134" type="line"/>
    </contour>
  </outline>
</glyph>
<glyph name="micro" format="2">
  <advance width="1200"/>
  <unicode hex="00B5"/>
  <outline>
    <contour>
      <point x="152" y="-412" type="line"/>
      <point x="339" y="-412" type="line"/>
      <point x="322" y="121" type="line"/>
      <point x="221" y="155" type="line"/>
      <point x="263" y="35"/>
      <point x="360" y="-31"/>
      <point x="488" y="-31" type="curve" smooth="yes"/>
      <point x="620" y="-31"/>
      <point x="721" y="41"/>
      <point x="784" y="181" type="curve"/>
      <point x="793" y="181" type="line"/>
      <point x="800" y="50"/>
      <point x="877" y="-31"/>
      <point x="1001" y="-31" type="curve" smooth="yes"/>
      <point x="1062" y="-31"/>
      <point x="1113" y="-14"/>
      <point x="1165" y="21" type="curve"/>
      <point x="1114" y="152" type="line"/>
      <point x="1088" y="138"/>
      <point x="1066" y="131"/>
      <point x="1039" y="131" type="curve" smooth="yes"/>
      <point x="982" y="131"/>
      <point x="953" y="165"/>
      <point x="953" y="230" type="curve" smooth="yes"/>
      <point x="953" y="1047" type="line"/>
      <point x="773" y="1047" type="line"/>
      <point x="773" y="478" type="line" smooth="yes"/>
      <point x="773" y="266"/>
      <point x="665" y="130"/>
      <point x="502" y="130" type="curve" smooth="yes"/>
      <point x="397" y="130"/>
      <point x="332" y="194"/>
      <point x="332" y="300" type="curve" smooth="yes"/>
      <point x="332" y="1047" type="line"/>
      <point x="152" y="1047" type="line"/>
    </contour>
  </outline>
</glyph>
<glyph name="onesuperior" format="2">
  <advance width="1200"/>
  <unicode hex="00B9"/>
  <outline>
    <contour>
      <point x="532" y="780" type="line"/>
      <point x="712" y="780" type="line"/>
      <point x="712" y="1705" type="line"/>
      <point x="604" y="1705" type="line"/>
      <point x="224" y="1539" type="line"/>
      <point x="295" y="1384" type="line"/>
      <point x="532" y="1490" type="line"/>
    </contour>
    <contour>
      <point x="265" y="697" type="line"/>
      <point x="952" y="697" type="line"/>
      <point x="952" y="867" type="line"/>
      <point x="265" y="867" type="line"/>
    </contour>
  </outline>
</glyph>
<glyph name="ordmasculine" format="2">
  <advance width="1200"/>
  <unicode hex="00BA"/>
  <outline>
    <contour>
      <point x="526" y="616" type="curve" smooth="yes"/>
      <point x="755" y="616"/>
      <point x="920" y="786"/>
      <point x="920" y="1025" type="curve" smooth="yes"/>
      <point x="920" y="1056" type="line" smooth="yes"/>
      <point x="920" y="1294"/>
      <point x="755" y="1464"/>
      <point x="526" y="1464" type="curve" smooth="yes"/>
      <point x="297" y="1464"/>
      <point x="132" y="1294"/>
      <point x="132" y="1056" type="curve" smooth="yes"/>
      <point x="132" y="1025" type="line" smooth="yes"/>
      <point x="132" y="786"/>
      <point x="297" y="616"/>
    </contour>
    <contour>
      <point x="526" y="778" type="curve" smooth="yes"/>
      <point x="391" y="778"/>
      <point x="310" y="874"/>
      <point x="310" y="1027" type="curve" smooth="yes"/>
      <point x="310" y="1053" type="line" smooth="yes"/>
      <point x="310" y="1206"/>
      <point x="391" y="1302"/>
      <point x="526" y="1302" type="curve" smooth="yes"/>
      <point x="660" y="1302"/>
      <point x="742" y="1206"/>
      <point x="742" y="1053" type="curve" smooth="yes"/>
      <point x="742" y="1027" type="line" smooth="yes"/>
      <point x="742" y="874"/>
      <point x="660" y="778"/>
    </contour>
  </outline>
</glyph>
<glyph name="threequarters" format="2">
  <advance width="1200"/>
  <unicode hex="00BE"/>
  <outline>
    <contour>
      <point x="901" y="-31" type="line"/>
      <point x="1038" y="-31" type="line"/>
      <point x="1038" y="686" type="line"/>
      <point x="884" y="686" type="line"/>
      <point x="545" y="241" type="line"/>
      <point x="545" y="114" type="line"/>
      <point x="1143" y="114" type="line"/>
      <point x="1143" y="244" type="line"/>
      <point x="980" y="244" type="line"/>
      <point x="956" y="234" type="line"/>
      <point x="699" y="234" type="line"/>
      <point x="699" y="244" type="line"/>
      <point x="902" y="511" type="line"/>
      <point x="940" y="511" type="line"/>
      <point x="912" y="545" type="line"/>
      <point x="912" y="191" type="line"/>
      <point x="901" y="171" type="line"/>
    </contour>
    <contour>
      <point x="305" y="729" type="curve" smooth="yes"/>
      <point x="447" y="729"/>
      <point x="549" y="814"/>
      <point x="549" y="930" type="curve" smooth="yes"/>
      <point x="549" y="934" type="line" smooth="yes"/>
      <point x="549" y="1021"/>
      <point x="504" y="1080"/>
      <point x="415" y="1103" type="curve"/>
      <point x="415" y="1110" type="line"/>
      <point x="492" y="1135"/>
      <point x="533" y="1187"/>
      <point x="533" y="1262" type="curve" smooth="yes"/>
      <point x="533" y="1266" type="line" smooth="yes"/>
      <point x="533" y="1382"/>
      <point x="442" y="1460"/>
      <point x="305" y="1460" type="curve" smooth="yes"/>
      <point x="172" y="1460"/>
      <point x="75" y="1397"/>
      <point x="45" y="1293" type="curve"/>
      <point x="185" y="1255" type="line"/>
      <point x="199" y="1304"/>
      <point x="238" y="1329"/>
      <point x="297" y="1329" type="curve" smooth="yes"/>
      <point x="355" y="1329"/>
      <point x="389" y="1299"/>
      <point x="389" y="1248" type="curve" smooth="yes"/>
      <point x="389" y="1242" type="line" smooth="yes"/>
      <point x="389" y="1188"/>
      <point x="348" y="1156"/>
      <point x="280" y="1156" type="curve" smooth="yes"/>
      <point x="189" y="1156" type="line"/>
      <point x="189" y="1045" type="line"/>
      <point x="285" y="1045" type="line" smooth="yes"/>
      <point x="365" y="1045"/>
      <point x="405" y="1014"/>
      <point x="405" y="954" type="curve" smooth="yes"/>
      <point x="405" y="948" type="line" smooth="yes"/>
      <point x="405" y="895"/>
      <point x="363" y="860"/>
      <point x="300" y="860" type="curve" smooth="yes"/>
      <point x="230" y="860"/>
      <point x="187" y="893"/>
      <point x="171" y="957" type="curve"/>
      <point x="31" y="917" type="line"/>
      <point x="61" y="798"/>
      <point x="163" y="729"/>
    </contour>
    <contour>
      <point x="80" y="-31" type="line"/>
      <point x="225" y="-31" type="line"/>
      <point x="1188" y="1460" type="line"/>
      <point x="1043" y="1460" type="line"/>
    </contour>
  </outline>
</glyph>
<glyph name="AE" format="2">
  <advance width="1200"/>
  <unicode hex="00C6"/>
  <anchor x="801" y="1432" name="top"/>
  <outline>
    <contour>
      <point x="9" y="0" type="line"/>
      <point x="196" y="0" type="line"/>
      <point x="513" y="1023" type="line"/>
      <point x="573" y="1252" type="line"/>
      <point x="692" y="1252" type="line"/>
      <point x="747" y="1432" type="line"/>
      <point x="473" y="1432" type="line"/>
    </contour>
    <contour>
      <point x="238" y="367" type="line"/>
      <point x="669" y="367" type="line"/>
      <point x="669" y="533" type="line"/>
      <point x="274" y="533" type="line"/>
    </contour>
    <contour>
      <point x="616" y="0" type="line"/>
      <point x="1184" y="0" type="line"/>
      <point x="1184" y="171" type="line"/>
      <point x="783" y="171" type="line"/>
      <point x="783" y="1261" type="line"/>
      <point x="1168" y="1261" type="line"/>
      <point x="1168" y="1432" type="line"/>
      <point x="616" y="1432" type="line"/>
    </contour>
    <contour>
      <point x="709" y="649" type="line"/>
      <point x="1104" y="649" type="line"/>
      <point x="1104" y="819" type="line"/>
      <point x="709" y="819" type="line"/>
    </contour>
  </outline>
</glyph>
<glyph name="Oslash" format="2">
  <advance width="1200"/>
  <unicode hex="00D8"/>
  <guideline x="1124" y="697" angle="90"/>
  <outline>
    <contour>
      <point x="185" y="-180" type="line"/>
      <point x="1146" y="1539" type="line"/>
      <point x="1015" y="1612" type="line"/>
      <point x="54" y="-107" type="line"/>
    </contour>
    <contour>
      <point x="602" y="-32" type="curve" smooth="yes"/>
      <point x="926" y="-32"/>
      <point x="1125" y="246"/>
      <point x="1125" y="697" type="curve" smooth="yes"/>
      <point x="1125" y="735" type="line" smooth="yes"/>
      <point x="1125" y="1175"/>
      <point x="912" y="1464"/>
      <point x="598" y="1464" type="curve" smooth="yes"/>
      <point x="275" y="1464"/>
      <point x="75" y="1187"/>
      <point x="75" y="735" type="curve" smooth="yes"/>
      <point x="75" y="697" type="line" smooth="yes"/>
      <point x="75" y="258"/>
      <point x="288" y="-32"/>
    </contour>
    <contour>
      <point x="596" y="134" type="curve" smooth="yes"/>
      <point x="362" y="134"/>
      <point x="253" y="317"/>
      <point x="253" y="686" type="curve" smooth="yes"/>
      <point x="253" y="742" type="line" smooth="yes"/>
      <point x="253" y="1099"/>
      <point x="379" y="1298"/>
      <point x="604" y="1298" type="curve" smooth="yes"/>
      <point x="837" y="1298"/>
      <point x="947" y="1112"/>
      <point x="947" y="746" type="curve" smooth="yes"/>
      <point x="947" y="690" type="line" smooth="yes"/>
      <point x="947" y="331"/>
      <point x="823" y="134"/>
    </contour>
  </outline>
</glyph>
<glyph name="Thorn" format="2">
  <advance width="1200"/>
  <unicode hex="00DE"/>
  <outline>
    <contour>
      <point x="268" y="325" type="line"/>
      <point x="603" y="325" type="line" smooth="yes"/>
      <point x="881" y="325"/>
      <point x="1061" y="495"/>
      <point x="1061" y="755" type="curve" smooth="yes"/>
      <point x="1061" y="762" type="line" smooth="yes"/>
      <point x="1061" y="1023"/>
      <point x="880" y="1193"/>
      <point x="603" y="1193" type="curve" smooth="yes"/>
      <point x="268" y="1193" type="line"/>
      <point x="268" y="1023" type="line"/>
      <point x="599" y="1023" type="line" smooth="yes"/>
      <point x="776" y="1023"/>
      <point x="875" y="931"/>
      <point x="875" y="768" type="curve" smooth="yes"/>
      <point x="875" y="750" type="line" smooth="yes"/>
      <point x="875" y="587"/>
      <point x="776" y="495"/>
      <point x="599" y="495" type="curve" smooth="yes"/>
      <point x="268" y="495" type="line"/>
    </contour>
    <contour>
      <point x="161" y="0" type="line"/>
      <point x="345" y="0" type="line"/>
      <point x="345" y="1432" type="line"/>
      <point x="161" y="1432" type="line"/>
    </contour>
  </outline>
</glyph>
<glyph name="germandbls" format="2">
  <advance width="1200"/>
  <unicode hex="00DF"/>
  <outline>
    <contour>
      <point x="789" y="-32" type="curve" smooth="yes"/>
      <point x="1002" y="-32"/>
      <point x="1140" y="97"/>
      <point x="1140" y="296" type="curve" smooth="yes"/>
      <point x="1140" y="299" type="line" smooth="yes"/>
      <point x="1140" y="452"/>
      <point x="1072" y="560"/>
      <point x="928" y="632" type="curve" smooth="yes"/>
      <point x="848" y="672" type="line" smooth="yes"/>
      <point x="773" y="709"/>
      <point x="746" y="740"/>
      <point x="746" y="788" type="curve" smooth="yes"/>
      <point x="746" y="795" type="line" smooth="yes"/>
      <point x="746" y="911"/>
      <point x="949" y="980"/>
      <point x="949" y="1181" type="curve" smooth="yes"/>
      <point x="949" y="1188" type="line" smooth="yes"/>
      <point x="949" y="1370"/>
      <point x="805" y="1492"/>
      <point x="590" y="1492" type="curve" smooth="yes"/>
      <point x="326" y="1492"/>
      <point x="164" y="1324"/>
      <point x="164" y="1052" type="curve" smooth="yes"/>
      <point x="164" y="0" type="line"/>
      <point x="344" y="0" type="line"/>
      <point x="344" y="1046" type="line" smooth="yes"/>
      <point x="344" y="1230"/>
      <point x="430" y="1330"/>
      <point x="587" y="1330" type="curve" smooth="yes"/>
      <point x="699" y="1330"/>
      <point x="767" y="1272"/>
      <point x="767" y="1177" type="curve" smooth="yes"/>
      <point x="767" y="1175" type="line" smooth="yes"/>
      <point x="767" y="1026"/>
      <point x="564" y="985"/>
      <point x="564" y="774" type="curve" smooth="yes"/>
      <point x="564" y="772" type="line" smooth="yes"/>
      <point x="564" y="676"/>
      <point x="612" y="603"/>
      <point x="710" y="554" type="curve" smooth="yes"/>
      <point x="790" y="514" type="line" smooth="yes"/>
      <point x="912" y="453"/>
      <point x="958" y="395"/>
      <point x="958" y="301" type="curve" smooth="yes"/>
      <point x="958" y="291" type="line" smooth="yes"/>
      <point x="958" y="193"/>
      <point x="892" y="130"/>
      <point x="790" y="130" type="curve" smooth="yes"/>
      <point x="707" y="130"/>
      <point x="637" y="171"/>
      <point x="591" y="247" type="curve"/>
      <point x="452" y="153" type="line"/>
      <point x="524" y="33"/>
      <point x="642" y="-32"/>
    </contour>
  </outline>
</glyph>
<glyph name="thorn" format="2">
  <advance width="1200"/>
  <unicode hex="00FE"/>
  <outline>
    <contour>
      <point x="152" y="-413" type="line"/>
      <point x="334" y="-413" type="line"/>
      <point x="334" y="155" type="line"/>
      <point x="340" y="155" type="line"/>
      <point x="413" y="37"/>
      <point x="520" y="-32"/>
      <point x="666" y="-32" type="curve" smooth="yes"/>
      <point x="914" y="-32"/>
      <point x="1076" y="183"/>
      <point x="1076" y="506" type="curve" smooth="yes"/>
      <point x="1076" y="541" type="line" smooth="yes"/>
      <point x="1076" y="864"/>
      <point x="914" y="1079"/>
      <point x="666" y="1079" type="curve" smooth="yes"/>
      <point x="521" y="1079"/>
      <point x="405" y="1008"/>
      <point x="341" y="888" type="curve"/>
      <point x="334" y="888" type="line"/>
      <point x="334" y="1460" type="line"/>
      <point x="152" y="1460" type="line"/>
    </contour>
    <contour>
      <point x="613" y="132" type="curve" smooth="yes"/>
      <point x="439" y="132"/>
      <point x="327" y="280"/>
      <point x="327" y="511" type="curve" smooth="yes"/>
      <point x="327" y="535" type="line" smooth="yes"/>
      <point x="327" y="766"/>
      <point x="439" y="915"/>
      <point x="613" y="915" type="curve" smooth="yes"/>
      <point x="787" y="915"/>
      <point x="890" y="773"/>
      <point x="890" y="537" type="curve" smooth="yes"/>
      <point x="890" y="510" type="line" smooth="yes"/>
      <point x="890" y="274"/>
      <point x="786" y="132"/>
    </contour>
  </outline>
</glyph>
<glyph name="aogonek" format="2">
  <advance width="1200"/>
  <unicode hex="0105"/>
  <anchor x="614" y="-32" name="bottom"/>
  <anchor x="1007" y="0" name="ogonek"/>
  <anchor x="600" y="1047" name="top"/>
  <outline>
    <contour>
      <point x="911" y="-534" type="curve" smooth="yes"/>
      <point x="978" y="-534"/>
      <point x="1034" y="-520"/>
      <point x="1089" y="-490" type="curve"/>
      <point x="1042" y="-360" type="line"/>
      <point x="1007" y="-378"/>
      <point x="974" y="-386"/>
      <point x="934" y="-386" type="curve" smooth="yes"/>
      <point x="856" y="-386"/>
      <point x="801" y="-335"/>
      <point x="801" y="-260" type="curve" smooth="yes"/>
      <point x="801" y="-161"/>
      <point x="861" y="-85"/>
      <point x="1007" y="0" type="curve"/>
      <point x="959" y="87" type="line"/>
      <point x="746" y="-10"/>
      <point x="642" y="-133"/>
      <point x="642" y="-281" type="curve" smooth="yes"/>
      <point x="642" y="-426"/>
      <point x="757" y="-534"/>
    </contour>
    <component base="a"/>
  </outline>
</glyph>
<glyph name="dcaron" format="2">
  <advance width="1200"/>
  <unicode hex="010F"/>
  <outline>
    <contour>
      <point x="490" y="-31" type="curve" smooth="yes"/>
      <point x="628" y="-31"/>
      <point x="722" y="44"/>
      <point x="774" y="168" type="curve"/>
      <point x="781" y="168" type="line"/>
      <point x="781" y="0" type="line"/>
      <point x="943" y="0" type="line"/>
      <point x="943" y="1460" type="line"/>
      <point x="767" y="1460" type="line"/>
      <point x="767" y="900" type="line"/>
      <point x="761" y="900" type="line"/>
      <point x="705" y="1012"/>
      <point x="618" y="1078"/>
      <point x="482" y="1078" type="curve" smooth="yes"/>
      <point x="252" y="1078"/>
      <point x="98" y="877"/>
      <point x="98" y="552" type="curve" smooth="yes"/>
      <point x="98" y="497" type="line" smooth="yes"/>
      <point x="98" y="175"/>
      <point x="259" y="-31"/>
    </contour>
    <contour>
      <point x="527" y="130" type="curve" smooth="yes"/>
      <point x="374" y="130"/>
      <point x="279" y="268"/>
      <point x="279" y="501" type="curve" smooth="yes"/>
      <point x="279" y="547" type="line" smooth="yes"/>
      <point x="279" y="782"/>
      <point x="372" y="917"/>
      <point x="527" y="917" type="curve" smooth="yes"/>
      <point x="679" y="917"/>
      <point x="774" y="778"/>
      <point x="774" y="547" type="curve" smooth="yes"/>
      <point x="774" y="501" type="line" smooth="yes"/>
      <point x="774" y="270"/>
      <point x="678" y="130"/>
    </contour>
    <contour>
      <point x="1058" y="968" type="line"/>
      <point x="1200" y="968" type="line"/>
      <point x="1251" y="1460" type="line"/>
      <point x="1078" y="1460" type="line"/>
    </contour>
  </outline>
</glyph>
<glyph name="hbar" format="2">
  <advance width="1200"/>
  <unicode hex="0127"/>
  <outline>
    <contour>
      <point x="182" y="0" type="line"/>
      <point x="363" y="0" type="line"/>
      <point x="363" y="538" type="line" smooth="yes"/>
      <point x="363" y="725"/>
      <point x="471" y="848"/>
      <point x="637" y="848" type="curve" smooth="yes"/>
      <point x="779" y="848"/>
      <point x="855" y="759"/>
      <point x="855" y="592" type="curve" smooth="yes"/>
      <point x="855" y="0" type="line"/>
      <point x="1036" y="0" type="line"/>
      <point x="1036" y="619" type="line" smooth="yes"/>
      <point x="1036" y="863"/>
      <point x="911" y="1009"/>
      <point x="700" y="1009" type="curve" smooth="yes"/>
      <point x="560" y="1009"/>
      <point x="443" y="946"/>
      <point x="362" y="827" type="curve"/>
      <point x="354" y="827" type="line"/>
      <point x="354" y="1495" type="line"/>
      <point x="182" y="1495" type="line"/>
    </contour>
    <contour>
      <point x="-4" y="1188" type="line"/>
      <point x="710" y="1188" type="line"/>
      <point x="710" y="1324" type="line"/>
      <point x="-4" y="1324" type="line"/>
    </contour>
  </outline>
</glyph>
<glyph name="Lcaron" format="2">
  <advance width="1200"/>
  <unicode hex="013D"/>
  <anchor x="632" y="0" name="bottom"/>
  <anchor x="291" y="1432" name="top"/>
  <outline>
    <contour>
      <point x="624" y="936" type="line"/>
      <point x="776" y="936" type="line"/>
      <point x="853" y="1432" type="line"/>
      <point x="663" y="1432" type="line"/>
    </contour>
    <component base="L"/>
  </outline>
</glyph>
<glyph name="lslash" format="2">
  <advance width="1200"/>
  <unicode hex="0142"/>
  <anchor x="768" y="-31" name="bottom"/>
  <anchor x="514" y="1460" name="top"/>
  <outline>
    <contour>
      <point x="134" y="458" type="line"/>
      <point x="495" y="662" type="line"/>
      <point x="555" y="677" type="line"/>
      <point x="977" y="911" type="line"/>
      <point x="977" y="1099" type="line"/>
      <point x="557" y="864" type="line"/>
      <point x="497" y="849" type="line"/>
      <point x="134" y="646" type="line"/>
    </contour>
    <component base="l"/>
  </outline>
</glyph>
<glyph name="Eng" format="2">
  <advance width="1200"/>
  <unicode hex="014A"/>
  <outline>
    <contour>
      <point x="716" y="-446" type="curve" smooth="yes"/>
      <point x="944" y="-446"/>
      <point x="1093" y="-289"/>
      <point x="1093" y="-41" type="curve" smooth="yes"/>
      <point x="1093" y="1018" type="line" smooth="yes"/>
      <point x="1093" y="1294"/>
      <point x="945" y="1464"/>
      <point x="703" y="1464" type="curve" smooth="yes"/>
      <point x="547" y="1464"/>
      <point x="406" y="1379"/>
      <point x="319" y="1237" type="curve"/>
      <point x="312" y="1237" type="line"/>
      <point x="312" y="1432" type="line"/>
      <point x="137" y="1432" type="line"/>
      <point x="137" y="0" type="line"/>
      <point x="323" y="0" type="line"/>
      <point x="323" y="917" type="line" smooth="yes"/>
      <point x="323" y="1136"/>
      <point x="457" y="1288"/>
      <point x="648" y="1288" type="curve" smooth="yes"/>
      <point x="819" y="1288"/>
      <point x="907" y="1183"/>
      <point x="907" y="985" type="curve" smooth="yes"/>
      <point x="907" y="-46" type="line" smooth="yes"/>
      <point x="907" y="-193"/>
      <point x="838" y="-270"/>
      <point x="708" y="-270" type="curve" smooth="yes"/>
      <point x="626" y="-270"/>
      <point x="552" y="-240"/>
      <point x="486" y="-179" type="curve"/>
      <point x="376" y="-318" type="line"/>
      <point x="469" y="-401"/>
      <point x="587" y="-446"/>
    </contour>
  </outline>
</glyph>
<glyph name="OE" format="2">
  <advance width="1200"/>
  <unicode hex="0152"/>
  <outline>
    <contour>
      <point x="398" y="-31" type="curve" smooth="yes"/>
      <point x="525" y="-31"/>
      <point x="616" y="60"/>
      <point x="658" y="228" type="curve"/>
      <point x="671" y="228" type="line"/>
      <point x="671" y="0" type="line"/>
      <point x="1181" y="0" type="line"/>
      <point x="1181" y="171" type="line"/>
      <point x="798" y="171" type="line"/>
      <point x="798" y="1261" type="line"/>
      <point x="1165" y="1261" type="line"/>
      <point x="1165" y="1432" type="line"/>
      <point x="669" y="1432" type="line"/>
      <point x="669" y="1204" type="line"/>
      <point x="658" y="1204" type="line"/>
      <point x="616" y="1372"/>
      <point x="525" y="1463"/>
      <point x="398" y="1463" type="curve" smooth="yes"/>
      <point x="172" y="1463"/>
      <point x="36" y="1195"/>
      <point x="36" y="741" type="curve" smooth="yes"/>
      <point x="36" y="691" type="line" smooth="yes"/>
      <point x="36" y="238"/>
      <point x="172" y="-31"/>
    </contour>
    <contour>
      <point x="425" y="143" type="curve" smooth="yes"/>
      <point x="287" y="143"/>
      <point x="215" y="333"/>
      <point x="215" y="686" type="curve" smooth="yes"/>
      <point x="215" y="746" type="line" smooth="yes"/>
      <point x="215" y="1100"/>
      <point x="287" y="1290"/>
      <point x="425" y="1290" type="curve" smooth="yes"/>
      <point x="561" y="1290"/>
      <point x="631" y="1103"/>
      <point x="631" y="754" type="curve" smooth="yes"/>
      <point x="631" y="678" type="line" smooth="yes"/>
      <point x="631" y="330"/>
      <point x="561" y="143"/>
    </contour>
    <contour>
      <point x="730" y="649" type="line"/>
      <point x="1101" y="649" type="line"/>
      <point x="1101" y="819" type="line"/>
      <point x="730" y="819" type="line"/>
    </contour>
  </outline>
</glyph>
<glyph name="Uogonek" format="2">
  <advance width="1200"/>
  <unicode hex="0172"/>
  <outline>
    <contour>
      <point x="707" y="-534" type="curve" smooth="yes"/>
      <point x="770" y="-534"/>
      <point x="826" y="-520"/>
      <point x="879" y="-491" type="curve"/>
      <point x="837" y="-360" type="line"/>
      <point x="803" y="-378"/>
      <point x="771" y="-386"/>
      <point x="730" y="-386" type="curve" smooth="yes"/>
      <point x="651" y="-386"/>
      <point x="596" y="-335"/>
      <point x="596" y="-261" type="curve" smooth="yes"/>
      <point x="596" y="-174"/>
      <point x="638" y="-114"/>
      <point x="778" y="-23" type="curve" smooth="yes"/>
      <point x="978" y="106"/>
      <point x="1058" y="245"/>
      <point x="1058" y="447" type="curve" smooth="yes"/>
      <point x="1058" y="1432" type="line"/>
      <point x="872" y="1432" type="line"/>
      <point x="872" y="458" type="line" smooth="yes"/>
      <point x="872" y="265"/>
      <point x="768" y="144"/>
      <point x="600" y="144" type="curve" smooth="yes"/>
      <point x="432" y="144"/>
      <point x="328" y="265"/>
      <point x="328" y="458" type="curve" smooth="yes"/>
      <point x="328" y="1432" type="line"/>
      <point x="142" y="1432" type="line"/>
      <point x="142" y="447" type="line" smooth="yes"/>
      <point x="142" y="164"/>
      <point x="327" y="-30"/>
      <point x="600" y="-30" type="curve" smooth="yes"/>
      <point x="651" y="-30"/>
      <point x="699" y="-22"/>
      <point x="743" y="-10" type="curve"/>
      <point x="786" y="87" type="line"/>
      <point x="551" y="-5"/>
      <point x="437" y="-126"/>
      <point x="437" y="-282" type="curve" smooth="yes"/>
      <point x="437" y="-427"/>
      <point x="552" y="-534"/>
    </contour>
  </outline>
</glyph>
<glyph name="longs" format="2">
  <advance width="1200"/>
  <unicode hex="017F"/>
  <outline>
    <contour>
      <point x="400" y="0" type="line"/>
      <point x="580" y="0" type="line"/>
      <point x="580" y="1070" type="line" smooth="yes"/>
      <point x="580" y="1238"/>
      <point x="648" y="1321"/>
      <point x="781" y="1321" type="curve" smooth="yes"/>
      <point x="865" y="1321"/>
      <point x="930" y="1291"/>
      <point x="1000" y="1221" type="curve"/>
      <point x="1112" y="1351" type="line"/>
      <point x="1015" y="1448"/>
      <point x="911" y="1492"/>
      <point x="777" y="1492" type="curve" smooth="yes"/>
      <point x="547" y="1492"/>
      <point x="400" y="1336"/>
      <point x="400" y="1088" type="curve" smooth="yes"/>
    </contour>
    <contour>
      <point x="146" y="899" type="line"/>
      <point x="488" y="899" type="line"/>
      <point x="488" y="1047" type="line"/>
      <point x="146" y="1047" type="line"/>
    </contour>
  </outline>
</glyph>
<glyph name="Bhook" format="2">
  <advance width="1200"/>
  <unicode hex="0181"/>
  <outline>
    <contour>
      <point x="405" y="0" type="line"/>
      <point x="771" y="0" type="line" smooth="yes"/>
      <point x="1018" y="0"/>
      <point x="1184" y="151"/>
      <point x="1184" y="374" type="curve" smooth="yes"/>
      <point x="1184" y="402" type="line" smooth="yes"/>
      <point x="1184" y="574"/>
      <point x="1086" y="699"/>
      <point x="925" y="733" type="curve"/>
      <point x="925" y="740" type="line"/>
      <point x="1061" y="796"/>
      <point x="1135" y="907"/>
      <point x="1135" y="1053" type="curve" smooth="yes"/>
      <point x="1135" y="1081" type="line" smooth="yes"/>
      <point x="1135" y="1297"/>
      <point x="982" y="1432"/>
      <point x="738" y="1432" type="curve" smooth="yes"/>
      <point x="405" y="1432" type="line"/>
    </contour>
    <contour>
      <point x="49" y="887" type="curve"/>
      <point x="207" y="945" type="line"/>
      <point x="187" y="996"/>
      <point x="176" y="1043"/>
      <point x="176" y="1095" type="curve" smooth="yes"/>
      <point x="176" y="1210"/>
      <point x="243" y="1275"/>
      <point x="364" y="1275" type="curve" smooth="yes"/>
      <point x="526" y="1275" type="line"/>
      <point x="526" y="1432" type="line"/>
      <point x="363" y="1432" type="line" smooth="yes"/>
      <point x="150" y="1432"/>
      <point x="0" y="1294"/>
      <point x="0" y="1099" type="curve" smooth="yes"/>
      <point x="0" y="1034"/>
      <point x="17" y="961"/>
    </contour>
    <contour>
      <point x="573" y="158" type="line"/>
      <point x="573" y="1274" type="line"/>
      <point x="733" y="1274" type="line" smooth="yes"/>
      <point x="881" y="1274"/>
      <point x="957" y="1199"/>
      <point x="957" y="1053" type="curve" smooth="yes"/>
      <point x="957" y="1032" type="line" smooth="yes"/>
      <point x="957" y="889"/>
      <point x="879" y="812"/>
      <point x="733" y="812" type="curve" smooth="yes"/>
      <point x="493" y="812" type="line"/>
      <point x="493" y="654" type="line"/>
      <point x="744" y="654" type="line" smooth="yes"/>
      <point x="915" y="654"/>
      <point x="1004" y="573"/>
      <point x="1004" y="418" type="curve" smooth="yes"/>
      <point x="1004" y="394" type="line" smooth="yes"/>
      <point x="1004" y="241"/>
      <point x="915" y="158"/>
      <point x="755" y="158" type="curve" smooth="yes"/>
    </contour>
  </outline>
</glyph>
<glyph name="Uhorn" format="2">
  <advance width="1200"/>
  <unicode hex="01AF"/>
  <anchor x="531" y="-31" name="bottom"/>
  <outline>
    <contour>
      <point x="530" y="-31" type="curve" smooth="yes"/>
      <point x="785" y="-31"/>
      <point x="957" y="147"/>
      <point x="957" y="409" type="curve" smooth="yes"/>
      <point x="957" y="1410" type="line"/>
      <point x="829" y="1324" type="line"/>
      <point x="865" y="1324" type="line" smooth="yes"/>
      <point x="1057" y="1324"/>
      <point x="1181" y="1421"/>
      <point x="1181" y="1578" type="curve" smooth="yes"/>
      <point x="1181" y="1658"/>
      <point x="1153" y="1731"/>
      <point x="1096" y="1808" type="curve"/>
      <point x="933" y="1705" type="line"/>
      <point x="974" y="1649"/>
      <point x="993" y="1604"/>
      <point x="993" y="1555" type="curve" smooth="yes"/>
      <point x="993" y="1476"/>
      <point x="936" y="1432"/>
      <point x="834" y="1432" type="curve" smooth="yes"/>
      <point x="775" y="1432" type="line"/>
      <point x="775" y="420" type="line" smooth="yes"/>
      <point x="775" y="250"/>
      <point x="682" y="146"/>
      <point x="531" y="146" type="curve" smooth="yes"/>
      <point x="379" y="146"/>
      <point x="286" y="250"/>
      <point x="286" y="420" type="curve" smooth="yes"/>
      <point x="286" y="1432" type="line"/>
      <point x="103" y="1432" type="line"/>
      <point x="103" y="409" type="line" smooth="yes"/>
      <point x="103" y="147"/>
      <point x="276" y="-31"/>
    </contour>
  </outline>
</glyph>
<glyph name="uhorn" format="2">
  <advance width="1200"/>
  <unicode hex="01B0"/>
  <anchor x="562" y="-31" name="bottom"/>
  <outline>
    <contour>
      <point x="484" y="-31" type="curve" smooth="yes"/>
      <point x="615" y="-31"/>
      <point x="712" y="40"/>
      <point x="777" y="155" type="curve"/>
      <point x="784" y="155" type="line"/>
      <point x="784" y="0" type="line"/>
      <point x="953" y="0" type="line"/>
      <point x="953" y="1037" type="line"/>
      <point x="823" y="950" type="line"/>
      <point x="862" y="950" type="line" smooth="yes"/>
      <point x="1053" y="950"/>
      <point x="1174" y="1042"/>
      <point x="1174" y="1188" type="curve" smooth="yes"/>
      <point x="1174" y="1262"/>
      <point x="1151" y="1323"/>
      <point x="1100" y="1386" type="curve"/>
      <point x="939" y="1277" type="line"/>
      <point x="971" y="1238"/>
      <point x="986" y="1202"/>
      <point x="986" y="1162" type="curve" smooth="yes"/>
      <point x="986" y="1087"/>
      <point x="936" y="1047"/>
      <point x="839" y="1047" type="curve" smooth="yes"/>
      <point x="774" y="1047" type="line"/>
      <point x="774" y="427" type="line" smooth="yes"/>
      <point x="774" y="246"/>
      <point x="678" y="129"/>
      <point x="540" y="129" type="curve" smooth="yes"/>
      <point x="416" y="129"/>
      <point x="348" y="207"/>
      <point x="348" y="348" type="curve" smooth="yes"/>
      <point x="348" y="1047" type="line"/>
      <point x="170" y="1047" type="line"/>
      <point x="170" y="317" type="line" smooth="yes"/>
      <point x="170" y="99"/>
      <point x="292" y="-31"/>
    </contour>
  </outline>
</glyph>
<glyph name="Yhook" format="2">
  <advance width="1200"/>
  <unicode hex="01B3"/>
  <outline>
    <contour>
      <point x="431" y="509" type="line"/>
      <point x="596" y="509" type="line"/>
      <point x="793" y="1010" type="line" smooth="yes"/>
      <point x="878" y="1226"/>
      <point x="930" y="1287"/>
      <point x="1030" y="1287" type="curve" smooth="yes"/>
      <point x="1069" y="1287"/>
      <point x="1096" y="1278"/>
      <point x="1128" y="1259" type="curve"/>
      <point x="1199" y="1411" type="line"/>
      <point x="1138" y="1448"/>
      <point x="1082" y="1463"/>
      <point x="1013" y="1463" type="curve" smooth="yes"/>
      <point x="838" y="1463"/>
      <point x="738" y="1355"/>
      <point x="636" y="1077" type="curve" smooth="yes"/>
      <point x="586" y="941" type="line"/>
      <point x="519" y="726" type="line"/>
      <point x="513" y="726" type="line"/>
      <point x="433" y="955" type="line"/>
      <point x="242" y="1432" type="line"/>
      <point x="34" y="1432" type="line"/>
    </contour>
    <contour>
      <point x="420" y="0" type="line"/>
      <point x="607" y="0" type="line"/>
      <point x="607" y="611" type="line"/>
      <point x="420" y="611" type="line"/>
    </contour>
  </outline>
</glyph>
<glyph name="dzcaron" format="2">
  <advance width="1200"/>
  <unicode hex="01C6"/>
  <outline>
    <contour>
      <point x="282" y="-32" type="curve" smooth="yes"/>
      <point x="363" y="-32"/>
      <point x="425" y="28"/>
      <point x="463" y="137" type="curve"/>
      <point x="469" y="137" type="line"/>
      <point x="469" y="0" type="line"/>
      <point x="611" y="0" type="line"/>
      <point x="611" y="1460" type="line"/>
      <point x="451" y="1460" type="line"/>
      <point x="451" y="930" type="line"/>
      <point x="444" y="930" type="line"/>
      <point x="400" y="1029"/>
      <point x="346" y="1079"/>
      <point x="267" y="1079" type="curve" smooth="yes"/>
      <point x="110" y="1079"/>
      <point x="15" y="864"/>
      <point x="15" y="546" type="curve" smooth="yes"/>
      <point x="15" y="501" type="line" smooth="yes"/>
      <point x="15" y="183"/>
      <point x="122" y="-32"/>
    </contour>
    <contour>
      <point x="328" y="126" type="curve" smooth="yes"/>
      <point x="238" y="126"/>
      <point x="181" y="253"/>
      <point x="181" y="482" type="curve" smooth="yes"/>
      <point x="181" y="565" type="line" smooth="yes"/>
      <point x="181" y="794"/>
      <point x="234" y="921"/>
      <point x="324" y="921" type="curve" smooth="yes"/>
      <point x="415" y="921"/>
      <point x="464" y="788"/>
      <point x="464" y="564" type="curve" smooth="yes"/>
      <point x="464" y="483" type="line" smooth="yes"/>
      <point x="464" y="259"/>
      <point x="416" y="126"/>
    </contour>
    <contour>
      <point x="697" y="0" type="line"/>
      <point x="1203" y="0" type="line"/>
      <point x="1203" y="158" type="line"/>
      <point x="869" y="158" type="line"/>
      <point x="1192" y="913" type="line"/>
      <point x="1192" y="1047" type="line"/>
      <point x="705" y="1047" type="line"/>
      <point x="705" y="889" type="line"/>
      <point x="1020" y="889" type="line"/>
      <point x="697" y="134" type="line"/>
    </contour>
    <contour>
      <point x="874" y="1253" type="line"/>
      <point x="1042" y="1253" type="line"/>
      <point x="1239" y="1602" type="line"/>
      <point x="1239" y="1613" type="line"/>
      <point x="1073" y="1613" type="line"/>
      <point x="942" y="1337" type="line"/>
      <point x="975" y="1337" type="line"/>
      <point x="843" y="1613" type="line"/>
      <point x="677" y="1613" type="line"/>
      <point x="677" y="1602" type="line"/>
    </contour>
  </outline>
</glyph>
<glyph name="Nj" format="2">
  <advance width="1200"/>
  <unicode hex="01CB"/>
  <outline>
    <contour>
      <point x="22" y="0" type="line"/>
      <point x="176" y="0" type="line"/>
      <point x="176" y="672" type="line"/>
      <point x="149" y="1205" type="line"/>
      <point x="159" y="1205" type="line"/>
      <point x="516" y="0" type="line"/>
      <point x="704" y="0" type="line"/>
      <point x="704" y="1432" type="line"/>
      <point x="550" y="1432" type="line"/>
      <point x="550" y="832" type="line"/>
      <point x="586" y="305" type="line"/>
      <point x="575" y="305" type="line"/>
      <point x="237" y="1432" type="line"/>
      <point x="22" y="1432" type="line"/>
    </contour>
    <contour>
      <point x="804" y="-442" type="curve" smooth="yes"/>
      <point x="999" y="-442"/>
      <point x="1123" y="-301"/>
      <point x="1123" y="-79" type="curve" smooth="yes"/>
      <point x="1123" y="1047" type="line"/>
      <point x="953" y="1047" type="line"/>
      <point x="953" y="-80" type="line" smooth="yes"/>
      <point x="953" y="-214"/>
      <point x="899" y="-283"/>
      <point x="796" y="-283" type="curve" smooth="yes"/>
      <point x="736" y="-283"/>
      <point x="685" y="-263"/>
      <point x="625" y="-217" type="curve"/>
      <point x="535" y="-346" type="line"/>
      <point x="618" y="-411"/>
      <point x="706" y="-442"/>
    </contour>
    <contour>
      <point x="1038" y="1279" type="curve" smooth="yes"/>
      <point x="1121" y="1279"/>
      <point x="1185" y="1344"/>
      <point x="1185" y="1430" type="curve" smooth="yes"/>
      <point x="1185" y="1517"/>
      <point x="1123" y="1581"/>
      <point x="1038" y="1581" type="curve" smooth="yes"/>
      <point x="953" y="1581"/>
      <point x="889" y="1516"/>
      <point x="889" y="1431" type="curve" smooth="yes"/>
      <point x="889" y="1346"/>
      <point x="955" y="1279"/>
    </contour>
  </outline>
</glyph>
<glyph name="jdotless" format="2">
  <advance width="1200"/>
  <unicode hex="0237"/>
  <anchor x="715" y="1047" name="top"/>
  <outline>
    <contour>
      <point x="444" y="-442" type="curve" smooth="yes"/>
      <point x="676" y="-442"/>
      <point x="825" y="-285"/>
      <point x="825" y="-31" type="curve" smooth="yes"/>
      <point x="825" y="1047" type="line"/>
      <point x="645" y="1047" type="line"/>
      <point x="645" y="-35" type="line" smooth="yes"/>
      <point x="645" y="-191"/>
      <point x="573" y="-274"/>
      <point x="439" y="-274" type="curve" smooth="yes"/>
      <point x="358" y="-274"/>
      <point x="282" y="-245"/>
      <point x="203" y="-187" type="curve"/>
      <point x="111" y="-330" type="line"/>
      <point x="215" y="-405"/>
      <point x="325" y="-442"/>
    </contour>
    <contour>
      <point x="239" y="899" type="line"/>
      <point x="782" y="899" type="line"/>
      <point x="782" y="1047" type="line"/>
      <point x="239" y="1047" type="line"/>
    </contour>
  </outline>
</glyph>
<glyph name="gravecomb" format="2">
  <unicode hex="0300"/>
  <anchor x="0" y="1047" name="_top"/>
  <outline>
    <contour>
      <point x="-86" y="1253" type="line"/>
      <point x="86" y="1253" type="line"/>
      <point x="86" y="1264" type="line"/>
      <point x="-90" y="1613" type="line"/>
      <point x="-312" y="1613" type="line"/>
      <point x="-312" y="1602" type="line"/>
    </contour>
  </outline>
</glyph>
<glyph name="tildecomb" format="2">
  <unicode hex="0303"/>
  <anchor x="0" y="1047" name="_top"/>
  <outline>
    <contour>
      <point x="168" y="1263" type="curve" smooth="yes"/>
      <point x="291" y="1263"/>
      <point x="362" y="1356"/>
      <point x="362" y="1515" type="curve" smooth="yes"/>
      <point x="362" y="1611" type="line"/>
      <point x="210" y="1611" type="line"/>
      <point x="210" y="1517" type="line" smooth="yes"/>
      <point x="210" y="1451"/>
      <point x="188" y="1415"/>
      <point x="146" y="1415" type="curve" smooth="yes"/>
      <point x="111" y="1415"/>
      <point x="86" y="1431"/>
      <point x="35" y="1493" type="curve" smooth="yes"/>
      <point x="-43" y="1588"/>
      <point x="-90" y="1615"/>
      <point x="-162" y="1615" type="curve" smooth="yes"/>
      <point x="-286" y="1615"/>
      <point x="-361" y="1520"/>
      <point x="-361" y="1363" type="curve" smooth="yes"/>
      <point x="-361" y="1267" type="line"/>
      <point x="-210" y="1267" type="line"/>
      <point x="-210" y="1361" type="line" smooth="yes"/>
      <point x="-210" y="1427"/>
      <point x="-187" y="1463"/>
      <point x="-145" y="1463" type="curve" smooth="yes"/>
      <point x="-111" y="1463"/>
      <point x="-86" y="1447"/>
      <point x="-33" y="1383" type="curve" smooth="yes"/>
      <point x="43" y="1292"/>
      <point x="95" y="1263"/>
    </contour>
  </outline>
</glyph>
<glyph name="dotaccentcomb" format="2">
  <unicode hex="0307"/>
  <anchor x="0" y="1047" name="_top"/>
  <outline>
    <contour>
      <point x="0" y="1278" type="curve" smooth="yes"/>
      <point x="89" y="1278"/>
      <point x="156" y="1347"/>
      <point x="156" y="1433" type="curve" smooth="yes"/>
      <point x="156" y="1519"/>
      <point x="89" y="1586"/>
      <point x="0" y="1586" type="curve" smooth="yes"/>
      <point x="-88" y="1586"/>
      <point x="-154" y="1519"/>
      <point x="-154" y="1433" type="curve" smooth="yes"/>
      <point x="-154" y="1347"/>
      <point x="-88" y="1278"/>
    </contour>
  </outline>
</glyph>
<glyph name="hookabovecomb" format="2">
  <unicode hex="0309"/>
  <anchor x="0" y="1047" name="_top"/>
  <outline>
    <contour>
      <point x="-14" y="1175" type="line"/>
      <point x="172" y="1198"/>
      <point x="281" y="1295"/>
      <point x="281" y="1442" type="curve" smooth="yes"/>
      <point x="281" y="1589"/>
      <point x="172" y="1686"/>
      <point x="6" y="1686" type="curve" smooth="yes"/>
      <point x="-68" y="1686"/>
      <point x="-141" y="1670"/>
      <point x="-208" y="1642" type="curve"/>
      <point x="-163" y="1499" type="line"/>
      <point x="-109" y="1519"/>
      <point x="-53" y="1530"/>
      <point x="2" y="1530" type="curve" smooth="yes"/>
      <point x="88" y="1530"/>
      <point x="132" y="1497"/>
      <point x="132" y="1436" type="curve" smooth="yes"/>
      <point x="132" y="1370"/>
      <point x="75" y="1331"/>
      <point x="-37" y="1319" type="curve"/>
    </contour>
  </outline>
</glyph>
<glyph name="ringcomb" format="2">
  <unicode hex="030A"/>
  <anchor x="0" y="1047" name="_top"/>
  <outline>
    <contour>
      <point x="0" y="1160" type="curve" smooth="yes"/>
      <point x="161" y="1160"/>
      <point x="284" y="1278"/>
      <point x="284" y="1435" type="curve" smooth="yes"/>
      <point x="284" y="1592"/>
      <point x="161" y="1710"/>
      <point x="0" y="1710" type="curve" smooth="yes"/>
      <point x="-162" y="1710"/>
      <point x="-284" y="1592"/>
      <point x="-284" y="1435" type="curve" smooth="yes"/>
      <point x="-284" y="1278"/>
      <point x="-162" y="1160"/>
    </contour>
    <contour>
      <point x="0" y="1298" type="curve" smooth="yes"/>
      <point x="-79" y="1298"/>
      <point x="-136" y="1356"/>
      <point x="-136" y="1435" type="curve" smooth="yes"/>
      <point x="-136" y="1514"/>
      <point x="-79" y="1572"/>
      <point x="0" y="1572" type="curve" smooth="yes"/>
      <point x="79" y="1572"/>
      <point x="136" y="1514"/>
      <point x="136" y="1435" type="curve" smooth="yes"/>
      <point x="136" y="1356"/>
      <point x="79" y="1298"/>
    </contour>
  </outline>
</glyph>
<glyph name="caroncomb" format="2">
  <unicode hex="030C"/>
  <anchor x="0" y="1047" name="_top"/>
  <outline>
    <contour>
      <point x="-97" y="1253" type="line"/>
      <point x="97" y="1253" type="line"/>
      <point x="369" y="1602" type="line"/>
      <point x="369" y="1613" type="line"/>
      <point x="173" y="1613" type="line"/>
      <point x="-17" y="1333" type="line"/>
      <point x="18" y="1333" type="line"/>
      <point x="-173" y="1613" type="line"/>
      <point x="-369" y="1613" type="line"/>
      <point x="-369" y="1602" type="line"/>
    </contour>
  </outline>
</glyph>
<glyph name="commaaccentcomb" format="2">
  <unicode hex="0326"/>
  <anchor x="0" y="0" name="_bottom"/>
  <outline>
    <contour>
      <point x="-83" y="-779" type="line"/>
      <point x="68" y="-546" type="line" smooth="yes"/>
      <point x="123" y="-462"/>
      <point x="146" y="-401"/>
      <point x="146" y="-342" type="curve" smooth="yes"/>
      <point x="146" y="-243"/>
      <point x="81" y="-177"/>
      <point x="-16" y="-177" type="curve" smooth="yes"/>
      <point x="-104" y="-177"/>
      <point x="-171" y="-241"/>
      <point x="-171" y="-326" type="curve" smooth="yes"/>
      <point x="-171" y="-410"/>
      <point x="-106" y="-472"/>
      <point x="-11" y="-476" type="curve"/>
      <point x="-10" y="-431" type="line"/>
      <point x="-199" y="-702" type="line"/>
    </contour>
  </outline>
</glyph>
<glyph name="cedillacomb" format="2">
  <unicode hex="0327"/>
  <anchor x="0" y="0" name="_bottom"/>
  <outline>
    <contour>
      <point x="2" y="-615" type="curve" smooth="yes"/>
      <point x="171" y="-615"/>
      <point x="284" y="-515"/>
      <point x="284" y="-365" type="curve" smooth="yes"/>
      <point x="284" y="-219"/>
      <point x="187" y="-121"/>
      <point x="42" y="-121" type="curve" smooth="yes"/>
      <point x="-27" y="-121"/>
      <point x="-95" y="-149"/>
      <point x="-142" y="-198" type="curve"/>
      <point x="-70" y="-209" type="line"/>
      <point x="72" y="14" type="line"/>
      <point x="-52" y="14" type="line"/>
      <point x="-185" y="-200" type="line"/>
      <point x="-90" y="-281" type="line"/>
      <point x="-62" y="-256"/>
      <point x="-26" y="-244"/>
      <point x="15" y="-244" type="curve" smooth="yes"/>
      <point x="87" y="-244"/>
      <point x="134" y="-291"/>
      <point x="134" y="-363" type="curve" smooth="yes"/>
      <point x="134" y="-432"/>
      <point x="81" y="-477"/>
      <point x="2" y="-477" type="curve" smooth="yes"/>
      <point x="-60" y="-477"/>
      <point x="-118" y="-446"/>
      <point x="-166" y="-386" type="curve"/>
      <point x="-276" y="-477" type="line"/>
      <point x="-209" y="-564"/>
      <point x="-108" y="-615"/>
    </contour>
  </outline>
</glyph>
<glyph name="verticallinebelowcomb" format="2">
  <unicode hex="0329"/>
  <anchor x="0" y="0" name="_bottom"/>
  <outline>
    <contour>
      <point x="-96" y="-613" type="line"/>
      <point x="96" y="-613" type="line"/>
      <point x="96" y="-189" type="line"/>
      <point x="-96" y="-189" type="line"/>
    </contour>
  </outline>
</glyph>
<glyph name="emdash" format="2">
  <advance width="1200"/>
  <unicode hex="2014"/>
  <outline>
    <contour>
      <point x="87" y="533" type="line"/>
      <point x="1113" y="533" type="line"/>
      <point x="1113" y="719" type="line"/>
      <point x="87" y="719" type="line"/>
    </contour>
  </outline>
</glyph>
<glyph name="bullet" format="2">
  <advance width="1200"/>
  <unicode hex="2022"/>
  <outline>
    <contour>
      <point x="560" y="423" type="curve" smooth="yes"/>
      <point x="700" y="423"/>
      <point x="804" y="528"/>
      <point x="804" y="667" type="curve" smooth="yes"/>
      <point x="804" y="807"/>
      <point x="700" y="911"/>
      <point x="560" y="911" type="curve" smooth="yes"/>
      <point x="421" y="911"/>
      <point x="316" y="807"/>
      <point x="316" y="667" type="curve" smooth="yes"/>
      <point x="316" y="528"/>
      <point x="421" y="423"/>
    </contour>
  </outline>
</glyph>
<glyph name="ellipsis" format="2">
  <advance width="1200"/>
  <unicode hex="2026"/>
  <outline>
    <contour>
      <point x="198" y="-31" type="curve" smooth="yes"/>
      <point x="269" y="-31"/>
      <point x="322" y="25"/>
      <point x="322" y="98" type="curve" smooth="yes"/>
      <point x="322" y="169"/>
      <point x="268" y="224"/>
      <point x="198" y="224" type="curve" smooth="yes"/>
      <point x="128" y="224"/>
      <point x="74" y="169"/>
      <point x="74" y="98" type="curve" smooth="yes"/>
      <point x="74" y="25"/>
      <point x="128" y="-31"/>
    </contour>
    <contour>
      <point x="1002" y="-31" type="curve" smooth="yes"/>
      <point x="1072" y="-31"/>
      <point x="1126" y="25"/>
      <point x="1126" y="98" type="curve" smooth="yes"/>
      <point x="1126" y="169"/>
      <point x="1072" y="224"/>
      <point x="1002" y="224" type="curve" smooth="yes"/>
      <point x="933" y="224"/>
      <point x="878" y="169"/>
      <point x="878" y="98" type="curve" smooth="yes"/>
      <point x="878" y="25"/>
      <point x="932" y="-31"/>
    </contour>
    <contour>
      <point x="600" y="-31" type="curve" smooth="yes"/>
      <point x="671" y="-31"/>
      <point x="724" y="25"/>
      <point x="724" y="98" type="curve" smooth="yes"/>
      <point x="724" y="169"/>
      <point x="670" y="224"/>
      <point x="600" y="224" type="curve" smooth="yes"/>
      <point x="531" y="224"/>
      <point x="476" y="169"/>
      <point x="476" y="98" type="curve" smooth="yes"/>
      <point x="476" y="25"/>
      <point x="530" y="-31"/>
    </contour>
  </outline>
</glyph>
<glyph name="minute" format="2">
  <advance width="1200"/>
  <unicode hex="2032"/>
  <outline>
    <contour>
      <point x="329" y="844" type="line"/>
      <point x="524" y="844" type="line"/>
      <point x="634" y="1460" type="line"/>
      <point x="404" y="1460" type="line"/>
    </contour>
  </outline>
</glyph>
<glyph name="fraction" format="2">
  <advance width="1200"/>
  <unicode hex="2044"/>
  <outline>
    <contour>
      <point x="56" y="-31" type="line"/>
      <point x="200" y="-31" type="line"/>
      <point x="1144" y="1460" type="line"/>
      <point x="1000" y="1460" type="line"/>
    </contour>
  </outline>
</glyph>
<glyph name="foursuperior" format="2">
  <advance width="1200"/>
  <unicode hex="2074"/>
  <outline>
    <contour>
      <point x="642" y="697" type="line"/>
      <point x="814" y="697" type="line"/>
      <point x="814" y="1705" type="line"/>
      <point x="639" y="1705" type="line"/>
      <point x="175" y="1068" type="line"/>
      <point x="175" y="927" type="line"/>
      <point x="979" y="927" type="line"/>
      <point x="979" y="1085" type="line"/>
      <point x="757" y="1085" type="line"/>
      <point x="716" y="1076" type="line"/>
      <point x="365" y="1076" type="line"/>
      <point x="365" y="1087" type="line"/>
      <point x="644" y="1472" type="line"/>
      <point x="702" y="1472" type="line"/>
      <point x="655" y="1531" type="line"/>
      <point x="655" y="1033" type="line"/>
      <point x="642" y="1001" type="line"/>
    </contour>
  </outline>
</glyph>
<glyph name="dong" format="2">
  <advance width="1200"/>
  <unicode hex="20AB"/>
  <outline>
    <contour>
      <point x="500" y="238" type="curve" smooth="yes"/>
      <point x="642" y="238"/>
      <point x="740" y="299"/>
      <point x="802" y="401" type="curve"/>
      <point x="809" y="401" type="line"/>
      <point x="809" y="238" type="line"/>
      <point x="968" y="238" type="line"/>
      <point x="968" y="1513" type="line"/>
      <point x="799" y="1513" type="line"/>
      <point x="799" y="918" type="line"/>
      <point x="792" y="918" type="line"/>
      <point x="722" y="1013"/>
      <point x="633" y="1066"/>
      <point x="492" y="1066" type="curve" smooth="yes"/>
      <point x="266" y="1066"/>
      <point x="95" y="893"/>
      <point x="95" y="659" type="curve" smooth="yes"/>
      <point x="95" y="645" type="line" smooth="yes"/>
      <point x="95" y="411"/>
      <point x="272" y="238"/>
    </contour>
    <contour>
      <point x="115" y="-104" type="line"/>
      <point x="1048" y="-104" type="line"/>
      <point x="1048" y="73" type="line"/>
      <point x="115" y="73" type="line"/>
    </contour>
    <contour>
      <point x="536" y="392" type="curve" smooth="yes"/>
      <point x="379" y="392"/>
      <point x="274" y="495"/>
      <point x="274" y="650" type="curve" smooth="yes"/>
      <point x="274" y="654" type="line" smooth="yes"/>
      <point x="274" y="809"/>
      <point x="377" y="912"/>
      <point x="536" y="912" type="curve" smooth="yes"/>
      <point x="688" y="912"/>
      <point x="798" y="805"/>
      <point x="798" y="654" type="curve" smooth="yes"/>
      <point x="798" y="650" type="line" smooth="yes"/>
      <point x="798" y="499"/>
      <point x="685" y="392"/>
    </contour>
    <contour>
      <point x="435" y="1219" type="line"/>
      <point x="1152" y="1219" type="line"/>
      <point x="1152" y="1359" type="line"/>
      <point x="435" y="1359" type="line"/>
    </contour>
  </outline>
</glyph>
<glyph name="trademark" format="2">
  <advance width="1200"/>
  <unicode hex="2122"/>
  <outline>
    <contour>
      <point x="588" y="622" type="line"/>
      <point x="708" y="622" type="line"/>
      <point x="708" y="932" type="line"/>
      <point x="696" y="1200" type="line"/>
      <point x="706" y="1200" type="line"/>
      <point x="834" y="808" type="line"/>
      <point x="936" y="808" type="line"/>
      <point x="1064" y="1200" type="line"/>
      <point x="1074" y="1200" type="line"/>
      <point x="1062" y="932" type="line"/>
      <point x="1062" y="622" type="line"/>
      <point x="1182" y="622" type="line"/>
      <point x="1182" y="1458" type="line"/>
      <point x="1053" y="1458" type="line"/>
      <point x="928" y="1100" type="line"/>
      <point x="890" y="958" type="line"/>
      <point x="880" y="958" type="line"/>
      <point x="842" y="1100" type="line"/>
      <point x="717" y="1458" type="line"/>
      <point x="588" y="1458" type="line"/>
    </contour>
    <contour>
      <point x="200" y="622" type="line"/>
      <point x="330" y="622" type="line"/>
      <point x="330" y="1422" type="line"/>
      <point x="200" y="1422" type="line"/>
    </contour>
    <contour>
      <point x="18" y="1336" type="line"/>
      <point x="513" y="1336" type="line"/>
      <point x="513" y="1458" type="line"/>
      <point x="18" y="1458" type="line"/>
    </contour>
  </outline>
</glyph>
<glyph name="downArrow" format="2">
  <advance width="1200"/>
  <unicode hex="2193"/>
  <outline>
    <contour>
      <point x="600" y="25" type="line"/>
      <point x="1146" y="524" type="line"/>
      <point x="1035" y="640" type="line"/>
      <point x="614" y="234" type="line"/>
      <point x="586" y="234" type="line"/>
      <point x="164" y="640" type="line"/>
      <point x="54" y="524" type="line"/>
    </contour>
    <contour>
      <point x="533" y="147" type="line"/>
      <point x="667" y="147" type="line"/>
      <point x="689" y="575" type="line"/>
      <point x="689" y="1227" type="line"/>
      <point x="511" y="1227" type="line"/>
      <point x="511" y="575" type="line"/>
    </contour>
  </outline>
</glyph>
<glyph name="rightwardsDoubleArrow" format="2">
  <advance width="1200"/>
  <unicode hex="21D2"/>
  <outline>
    <contour>
      <point x="620" y="31" type="line"/>
      <point x="1182" y="630" type="line"/>
      <point x="620" y="1229" type="line"/>
      <point x="512" y="1123" type="line"/>
      <point x="971" y="653" type="line"/>
      <point x="971" y="607" type="line"/>
      <point x="512" y="137" type="line"/>
    </contour>
    <contour>
      <point x="40" y="383" type="line"/>
      <point x="586" y="383" type="line"/>
      <point x="948" y="422" type="line"/>
      <point x="948" y="533" type="line"/>
      <point x="40" y="533" type="line"/>
    </contour>
    <contour>
      <point x="40" y="727" type="line"/>
      <point x="948" y="727" type="line"/>
      <point x="948" y="838" type="line"/>
      <point x="586" y="877" type="line"/>
      <point x="40" y="877" type="line"/>
    </contour>
  </outline>
</glyph>
<glyph name="minus" format="2">
  <advance width="1200"/>
  <unicode hex="2212"/>
  <outline>
    <contour>
      <point x="154" y="540" type="line"/>
      <point x="1046" y="540" type="line"/>
      <point x="1046" y="720" type="line"/>
      <point x="154" y="720" type="line"/>
    </contour>
  </outline>
</glyph>
<glyph name="divisionslash" format="2">
  <advance width="1200"/>
  <unicode hex="2215"/>
  <outline>
    <contour>
      <point x="50" y="-32" type="line"/>
      <point x="264" y="-32" type="line"/>
      <point x="1150" y="1460" type="line"/>
      <point x="936" y="1460" type="line"/>
    </contour>
  </outline>
</glyph>
<glyph name="lessequal" format="2">
  <advance width="1200"/>
  <unicode hex="2264"/>
  <outline>
    <contour>
      <point x="1050" y="256" type="line"/>
      <point x="1050" y="441" type="line"/>
      <point x="543" y="630" type="line"/>
      <point x="351" y="690" type="line"/>
      <point x="351" y="698" type="line"/>
      <point x="543" y="758" type="line"/>
      <point x="1050" y="947" type="line"/>
      <point x="1050" y="1132" type="line"/>
      <point x="150" y="785" type="line"/>
      <point x="150" y="604" type="line"/>
    </contour>
    <contour>
      <point x="150" y="0" type="line"/>
      <point x="1050" y="0" type="line"/>
      <point x="1050" y="171" type="line"/>
      <point x="150" y="171" type="line"/>
    </contour>
  </outline>
</glyph>
<glyph name="propellor" format="2">
  <advance width="1200"/>
  <unicode hex="2318"/>
  <outline>
    <contour>
      <point x="276" y="163" type="curve" smooth="yes"/>
      <point x="414" y="163"/>
      <point x="506" y="261"/>
      <point x="506" y="412" type="curve" smooth="yes"/>
      <point x="506" y="492" type="line"/>
      <point x="694" y="492" type="line"/>
      <point x="694" y="412" type="line" smooth="yes"/>
      <point x="694" y="261"/>
      <point x="786" y="163"/>
      <point x="925" y="163" type="curve" smooth="yes"/>
      <point x="1066" y="163"/>
      <point x="1158" y="256"/>
      <point x="1158" y="396" type="curve" smooth="yes"/>
      <point x="1158" y="535"/>
      <point x="1059" y="625"/>
      <point x="907" y="625" type="curve" smooth="yes"/>
      <point x="831" y="625" type="line"/>
      <point x="831" y="807" type="line"/>
      <point x="907" y="807" type="line" smooth="yes"/>
      <point x="1059" y="807"/>
      <point x="1158" y="898"/>
      <point x="1158" y="1036" type="curve" smooth="yes"/>
      <point x="1158" y="1177"/>
      <point x="1066" y="1269"/>
      <point x="925" y="1269" type="curve" smooth="yes"/>
      <point x="786" y="1269"/>
      <point x="694" y="1170"/>
      <point x="694" y="1019" type="curve" smooth="yes"/>
      <point x="694" y="940" type="line"/>
      <point x="506" y="940" type="line"/>
      <point x="506" y="1019" type="line" smooth="yes"/>
      <point x="506" y="1170"/>
      <point x="414" y="1269"/>
      <point x="276" y="1269" type="curve" smooth="yes"/>
      <point x="136" y="1269"/>
      <point x="42" y="1177"/>
      <point x="42" y="1036" type="curve" smooth="yes"/>
      <point x="42" y="898"/>
      <point x="141" y="807"/>
      <point x="292" y="807" type="curve" smooth="yes"/>
      <point x="369" y="807" type="line"/>
      <point x="369" y="625" type="line"/>
      <point x="292" y="625" type="line" smooth="yes"/>
      <point x="141" y="625"/>
      <point x="42" y="535"/>
      <point x="42" y="396" type="curve" smooth="yes"/>
      <point x="42" y="256"/>
      <point x="136" y="163"/>
    </contour>
    <contour>
      <point x="276" y="299" type="curve" smooth="yes"/>
      <point x="217" y="299"/>
      <point x="180" y="335"/>
      <point x="180" y="394" type="curve" smooth="yes"/>
      <point x="180" y="456"/>
      <point x="224" y="494"/>
      <point x="296" y="494" type="curve" smooth="yes"/>
      <point x="371" y="494" type="line"/>
      <point x="371" y="419" type="line" smooth="yes"/>
      <point x="371" y="343"/>
      <point x="337" y="299"/>
    </contour>
    <contour>
      <point x="296" y="938" type="line" smooth="yes"/>
      <point x="224" y="938"/>
      <point x="180" y="975"/>
      <point x="180" y="1037" type="curve" smooth="yes"/>
      <point x="180" y="1096"/>
      <point x="217" y="1132"/>
      <point x="276" y="1132" type="curve" smooth="yes"/>
      <point x="337" y="1132"/>
      <point x="371" y="1089"/>
      <point x="371" y="1012" type="curve" smooth="yes"/>
      <point x="371" y="938" type="line"/>
    </contour>
    <contour>
      <point x="505" y="624" type="line"/>
      <point x="505" y="808" type="line"/>
      <point x="695" y="808" type="line"/>
      <point x="695" y="624" type="line"/>
    </contour>
    <contour>
      <point x="923" y="299" type="curve" smooth="yes"/>
      <point x="862" y="299"/>
      <point x="829" y="343"/>
      <point x="829" y="419" type="curve" smooth="yes"/>
      <point x="829" y="494" type="line"/>
      <point x="903" y="494" type="line" smooth="yes"/>
      <point x="976" y="494"/>
      <point x="1020" y="456"/>
      <point x="1020" y="394" type="curve" smooth="yes"/>
      <point x="1020" y="335"/>
      <point x="982" y="299"/>
    </contour>
    <contour>
      <point x="829" y="938" type="line"/>
      <point x="829" y="1012" type="line" smooth="yes"/>
      <point x="829" y="1089"/>
      <point x="863" y="1132"/>
      <point x="924" y="1132" type="curve" smooth="yes"/>
      <point x="982" y="1132"/>
      <point x="1020" y="1096"/>
      <point x="1020" y="1037" type="curve" smooth="yes"/>
      <point x="1020" y="975"/>
      <point x="975" y="938"/>
      <point x="903" y="938" type="curve" smooth="yes"/>
    </contour>
  </outline>
</glyph>
<glyph name="boxLightTripleDashHorizontal" format="2">
  <advance width="1200"/>
  <unicode hex="2504"/>
  <outline>
    <contour>
      <point x="867" y="554" type="line"/>
      <point x="1133" y="554" type="line"/>
      <point x="1133" y="734" type="line"/>
      <point x="867" y="734" type="line"/>
    </contour>
    <contour>
      <point x="67" y="554" type="line"/>
      <point x="333" y="554" type="line"/>
      <point x="333" y="734" type="line"/>
      <point x="67" y="734" type="line"/>
    </contour>
    <contour>
      <point x="467" y="554" type="line"/>
      <point x="733" y="554" type="line"/>
      <point x="733" y="734" type="line"/>
      <point x="467" y="734" type="line"/>
    </contour>
  </outline>
</glyph>
<glyph name="boxLightTripleDashVertical" format="2">
  <advance width="1200"/>
  <unicode hex="2506"/>
  <outline>
    <contour>
      <point x="510" y="366" type="line"/>
      <point x="690" y="366" type="line"/>
      <point x="690" y="922" type="line"/>
      <point x="510" y="922" type="line"/>
    </contour>
    <contour>
      <point x="510" y="-467" type="line"/>
      <point x="690" y="-467" type="line"/>
      <point x="690" y="88" type="line"/>
      <point x="510" y="88" type="line"/>
    </contour>
    <contour>
      <point x="510" y="1200" type="line"/>
      <point x="690" y="1200" type="line"/>
      <point x="690" y="1755" type="line"/>
      <point x="510" y="1755" type="line"/>
    </contour>
  </outline>
</glyph>
<glyph name="boxHeavyTripleDashVertical" format="2">
  <advance width="1200"/>
  <unicode hex="2507"/>
  <outline>
    <contour>
      <point x="438" y="366" type="line"/>
      <point x="762" y="366" type="line"/>
      <point x="762" y="922" type="line"/>
      <point x="438" y="922" type="line"/>
    </contour>
    <contour>
      <point x="438" y="-467" type="line"/>
      <point x="762" y="-467" type="line"/>
      <point x="762" y="88" type="line"/>
      <point x="438" y="88" type="line"/>
    </contour>
    <contour>
      <point x="438" y="1200" type="line"/>
      <point x="762" y="1200" type="line"/>
      <point x="762" y="1755" type="line"/>
      <point x="438" y="1755" type="line"/>
    </contour>
  </outline>
</glyph>
<glyph name="boxLightQuadrupleDashVertical" format="2">
  <advance width="1200"/>
  <unicode hex="250A"/>
  <outline>
    <contour>
      <point x="510" y="1347" type="line"/>
      <point x="690" y="1347" type="line"/>
      <point x="690" y="1816" type="line"/>
      <point x="510" y="1816" type="line"/>
    </contour>
    <contour>
      <point x="510" y="-528" type="line"/>
      <point x="690" y="-528" type="line"/>
      <point x="690" y="-59" type="line"/>
      <point x="510" y="-59" type="line"/>
    </contour>
    <contour>
      <point x="510" y="97" type="line"/>
      <point x="690" y="97" type="line"/>
      <point x="690" y="566" type="line"/>
      <point x="510" y="566" type="line"/>
    </contour>
    <contour>
      <point x="510" y="722" type="line"/>
      <point x="690" y="722" type="line"/>
      <point x="690" y="1191" type="line"/>
      <point x="510" y="1191" type="line"/>
    </contour>
  </outline>
</glyph>
<glyph name="boxHeavyQuadrupleDashVertical" format="2">
  <advance width="1200"/>
  <unicode hex="250B"/>
  <outline>
    <contour>
      <point x="438" y="1347" type="line"/>
      <point x="762" y="1347" type="line"/>
      <point x="762" y="1816" type="line"/>
      <point x="438" y="1816" type="line"/>
    </contour>
    <contour>
      <point x="438" y="-528" type="line"/>
      <point x="762" y="-528" type="line"/>
      <point x="762" y="-59" type="line"/>
      <point x="438" y="-59" type="line"/>
    </contour>
    <contour>
      <point x="438" y="97" type="line"/>
      <point x="762" y="97" type="line"/>
      <point x="762" y="566" type="line"/>
      <point x="438" y="566" type="line"/>
    </contour>
    <contour>
      <point x="438" y="722" type="line"/>
      <point x="762" y="722" type="line"/>
      <point x="762" y="1191" type="line"/>
      <point x="438" y="1191" type="line"/>
    </contour>
  </outline>
</glyph>
<glyph name="boxLightDownAndLeft" format="2">
  <advance width="1200"/>
  <unicode hex="2510"/>
  <outline>
    <contour>
      <point x="510" y="-656" type="line"/>
      <point x="690" y="-656" type="line"/>
      <point x="690" y="734" type="line"/>
      <point x="-90" y="734" type="line"/>
      <point x="-90" y="554" type="line"/>
      <point x="510" y="554" type="line"/>
    </contour>
  </outline>
</glyph>
<glyph name="boxDownLightAndLeftHeavy" format="2">
  <advance width="1200"/>
  <unicode hex="2511"/>
  <outline>
    <contour>
      <point x="510" y="-656" type="line"/>
      <point x="690" y="-656" type="line"/>
      <point x="690" y="806" type="line"/>
      <point x="-90" y="806" type="line"/>
      <point x="-90" y="482" type="line"/>
      <point x="510" y="482" type="line"/>
    </contour>
  </outline>
</glyph>
<glyph name="boxVerticalLightAndRightHeavy" format="2">
  <advance width="1200"/>
  <unicode hex="251D"/>
  <outline>
    <contour>
      <point x="510" y="-656" type="line"/>
      <point x="690" y="-656" type="line"/>
      <point x="690" y="482" type="line"/>
      <point x="1290" y="482" type="line"/>
      <point x="1290" y="806" type="line"/>
      <point x="690" y="806" type="line"/>
      <point x="690" y="1944" type="line"/>
      <point x="510" y="1944" type="line"/>
    </contour>
  </outline>
</glyph>
<glyph name="boxLeftLightAndRightDownHeavy" format="2">
  <advance width="1200"/>
  <unicode hex="2532"/>
  <outline>
    <contour>
      <point x="438" y="-656" type="line"/>
      <point x="762" y="-656" type="line"/>
      <point x="762" y="482" type="line"/>
      <point x="1290" y="482" type="line"/>
      <point x="1290" y="806" type="line"/>
      <point x="438" y="806" type="line"/>
      <point x="438" y="734" type="line"/>
      <point x="-90" y="734" type="line"/>
      <point x="-90" y="554" type="line"/>
      <point x="438" y="554" type="line"/>
    </contour>
  </outline>
</glyph>
<glyph name="boxLeftHeavyAndRightUpLight" format="2">
  <advance width="1200"/>
  <unicode hex="2535"/>
  <outline>
    <contour>
      <point x="-90" y="482" type="line"/>
      <point x="690" y="482" type="line"/>
      <point x="690" y="554" type="line"/>
      <point x="1290" y="554" type="line"/>
      <point x="1290" y="734" type="line"/>
      <point x="690" y="734" type="line"/>
      <point x="690" y="1944" type="line"/>
      <point x="510" y="1944" type="line"/>
      <point x="510" y="806" type="line"/>
      <point x="-90" y="806" type="line"/>
    </contour>
  </outline>
</glyph>
<glyph name="boxUpLightAndHorizontalHeavy" format="2">
  <advance width="1200"/>
  <unicode hex="2537"/>
  <outline>
    <contour>
      <point x="-90" y="482" type="line"/>
      <point x="1290" y="482" type="line"/>
      <point x="1290" y="806" type="line"/>
      <point x="690" y="806" type="line"/>
      <point x="690" y="1944" type="line"/>
      <point x="510" y="1944" type="line"/>
      <point x="510" y="806" type="line"/>
      <point x="-90" y="806" type="line"/>
    </contour>
  </outline>
</glyph>
<glyph name="boxUpHeavyAndHorizontalLight" format="2">
  <advance width="1200"/>
  <unicode hex="2538"/>
  <outline>
    <contour>
      <point x="-90" y="554" type="line"/>
      <point x="1290" y="554" type="line"/>
      <point x="1290" y="734" type="line"/>
      <point x="762" y="734" type="line"/>
      <point x="762" y="1944" type="line"/>
      <point x="438" y="1944" type="line"/>
      <point x="438" y="734" type="line"/>
      <point x="-90" y="734" type="line"/>
    </contour>
  </outline>
</glyph>
<glyph name="boxLeftLightAndRightUpHeavy" format="2">
  <advance width="1200"/>
  <unicode hex="253A"/>
  <outline>
    <contour>
      <point x="438" y="482" type="line"/>
      <point x="1290" y="482" type="line"/>
      <point x="1290" y="806" type="line"/>
      <point x="762" y="806" type="line"/>
      <point x="762" y="1944" type="line"/>
      <point x="438" y="1944" type="line"/>
      <point x="438" y="734" type="line"/>
      <point x="-90" y="734" type="line"/>
      <point x="-90" y="554" type="line"/>
      <point x="438" y="554" type="line"/>
    </contour>
  </outline>
</glyph>
<glyph name="boxVerticalLightAndHorizontalHeavy" format="2">
  <advance width="1200"/>
  <unicode hex="253F"/>
  <outline>
    <contour>
      <point x="510" y="-656" type="line"/>
      <point x="690" y="-656" type="line"/>
      <point x="690" y="482" type="line"/>
      <point x="1290" y="482" type="line"/>
      <point x="1290" y="806" type="line"/>
      <point x="690" y="806" type="line"/>
      <point x="690" y="1944" type="line"/>
      <point x="510" y="1944" type="line"/>
      <point x="510" y="806" type="line"/>
      <point x="-90" y="806" type="line"/>
      <point x="-90" y="482" type="line"/>
      <point x="510" y="482" type="line"/>
    </contour>
  </outline>
</glyph>
<glyph name="boxRightUpHeavyAndLeftDownLight" format="2">
  <advance width="1200"/>
  <unicode hex="2544"/>
  <outline>
    <contour>
      <point x="510" y="-656" type="line"/>
      <point x="690" y="-656" type="line"/>
      <point x="690" y="482" type="line"/>
      <point x="1290" y="482" type="line"/>
      <point x="1290" y="806" type="line"/>
      <point x="762" y="806" type="line"/>
      <point x="762" y="1944" type="line"/>
      <point x="438" y="1944" type="line"/>
      <point x="438" y="734" type="line"/>
      <point x="-90" y="734" type="line"/>
      <point x="-90" y="554" type="line"/>
      <point x="438" y="554" type="line"/>
      <point x="438" y="482" type="line"/>
      <point x="510" y="482" type="line"/>
    </contour>
  </outline>
</glyph>
<glyph name="boxDownDoubleAndRightSingle" format="2">
  <advance width="1200"/>
  <unicode hex="2553"/>
  <outline>
    <contour>
      <point x="330" y="-656" type="line"/>
      <point x="510" y="-656" type="line"/>
      <point x="510" y="554" type="line"/>
      <point x="690" y="554" type="line"/>
      <point x="690" y="-656" type="line"/>
      <point x="870" y="-656" type="line"/>
      <point x="870" y="554" type="line"/>
      <point x="1290" y="554" type="line"/>
      <point x="1290" y="734" type="line"/>
      <point x="330" y="734" type="line"/>
    </contour>
  </outline>
</glyph>
<glyph name="boxUpSingleAndLeftDouble" format="2">
  <advance width="1200"/>
  <unicode hex="255B"/>
  <outline>
    <contour>
      <point x="-90" y="374" type="line"/>
      <point x="690" y="374" type="line"/>
      <point x="690" y="1944" type="line"/>
      <point x="510" y="1944" type="line"/>
      <point x="510" y="914" type="line"/>
      <point x="-90" y="914" type="line"/>
      <point x="-90" y="734" type="line"/>
      <point x="510" y="734" type="line"/>
      <point x="510" y="554" type="line"/>
      <point x="-90" y="554" type="line"/>
    </contour>
  </outline>
</glyph>
<glyph name="boxUpDoubleAndLeftSingle" format="2">
  <advance width="1200"/>
  <unicode hex="255C"/>
  <outline>
    <contour>
      <point x="-90" y="554" type="line"/>
      <point x="870" y="554" type="line"/>
      <point x="870" y="1944" type="line"/>
      <point x="690" y="1944" type="line"/>
      <point x="690" y="734" type="line"/>
      <point x="510" y="734" type="line"/>
      <point x="510" y="1944" type="line"/>
      <point x="330" y="1944" type="line"/>
      <point x="330" y="734" type="line"/>
      <point x="-90" y="734" type="line"/>
    </contour>
  </outline>
</glyph>
<glyph name="boxDoubleVerticalAndRight" format="2">
  <advance width="1200"/>
  <unicode hex="2560"/>
  <outline>
    <contour>
      <point x="690" y="734" type="line"/>
      <point x="1290" y="734" type="line"/>
      <point x="1290" y="914" type="line"/>
      <point x="870" y="914" type="line"/>
      <point x="870" y="1944" type="line"/>
      <point x="690" y="1944" type="line"/>
    </contour>
    <contour>
      <point x="690" y="-656" type="line"/>
      <point x="870" y="-656" type="line"/>
      <point x="870" y="374" type="line"/>
      <point x="1290" y="374" type="line"/>
      <point x="1290" y="554" type="line"/>
      <point x="690" y="554" type="line"/>
    </contour>
    <contour>
      <point x="330" y="-656" type="line"/>
      <point x="510" y="-656" type="line"/>
      <point x="510" y="1944" type="line"/>
      <point x="330" y="1944" type="line"/>
    </contour>
  </outline>
</glyph>
<glyph name="boxDoubleUpAndHorizontal" format="2">
  <advance width="1200"/>
  <unicode hex="2569"/>
  <outline>
    <contour>
      <point x="690" y="734" type="line"/>
      <point x="1290" y="734" type="line"/>
      <point x="1290" y="914" type="line"/>
      <point x="870" y="914" type="line"/>
      <point x="870" y="1944" type="line"/>
      <point x="690" y="1944" type="line"/>
    </contour>
    <contour>
      <point x="-90" y="374" type="line"/>
      <point x="1290" y="374" type="line"/>
      <point x="1290" y="554" type="line"/>
      <point x="-90" y="554" type="line"/>
    </contour>
    <contour>
      <point x="-90" y="734" type="line"/>
      <point x="510" y="734" type="line"/>
      <point x="510" y="1944" type="line"/>
      <point x="330" y="1944" type="line"/>
      <point x="330" y="914" type="line"/>
      <point x="-90" y="914" type="line"/>
    </contour>
  </outline>
</glyph>
<glyph name="boxVerticalSingleAndHorizontalDouble" format="2">
  <advance width="1200"/>
  <unicode hex="256A"/>
  <outline>
    <contour>
      <point x="510" y="-656" type="line"/>
      <point x="690" y="-656" type="line"/>
      <point x="690" y="374" type="line"/>
      <point x="1290" y="374" type="line"/>
      <point x="1290" y="554" type="line"/>
      <point x="690" y="554" type="line"/>
      <point x="690" y="734" type="line"/>
      <point x="1290" y="734" type="line"/>
      <point x="1290" y="914" type="line"/>
      <point x="690" y="914" type="line"/>
      <point x="690" y="1944" type="line"/>
      <point x="510" y="1944" type="line"/>
      <point x="510" y="914" type="line"/>
      <point x="-90" y="914" type="line"/>
      <point x="-90" y="734" type="line"/>
      <point x="510" y="734" type="line"/>
      <point x="510" y="554" type="line"/>
      <point x="-90" y="554" type="line"/>
      <point x="-90" y="374" type="line"/>
      <point x="510" y="374" type="line"/>
    </contour>
  </outline>
</glyph>
<glyph name="boxLightArcDownAndRight" format="2">
  <advance width="1200"/>
  <unicode hex="256D"/>
  <outline>
    <contour>
      <point x="510" y="-656" type="line"/>
      <point x="690" y="-656" type="line"/>
      <point x="690" y="134" type="line" smooth="yes"/>
      <point x="690" y="396"/>
      <point x="848" y="554"/>
      <point x="1110" y="554" type="curve" smooth="yes"/>
      <point x="1290" y="554" type="line"/>
      <point x="1290" y="734" type="line"/>
      <point x="1110" y="734" type="line" smooth="yes"/>
      <point x="742" y="734"/>
      <point x="510" y="502"/>
      <point x="510" y="134" type="curve" smooth="yes"/>
    </contour>
  </outline>
</glyph>
<glyph name="boxLightArcDownAndLeft" format="2">
  <advance width="1200"/>
  <unicode hex="256E"/>
  <outline>
    <contour>
      <point x="510" y="-656" type="line"/>
      <point x="690" y="-656" type="line"/>
      <point x="690" y="134" type="line" smooth="yes"/>
      <point x="690" y="502"/>
      <point x="458" y="734"/>
      <point x="90" y="734" type="curve" smooth="yes"/>
      <point x="-90" y="734" type="line"/>
      <point x="-90" y="554" type="line"/>
      <point x="90" y="554" type="line" smooth="yes"/>
      <point x="352" y="554"/>
      <point x="510" y="396"/>
      <point x="510" y="134" type="curve" smooth="yes"/>
    </contour>
  </outline>
</glyph>
<glyph name="boxLightArcUpAndRight" format="2">
  <advance width="1200"/>
  <unicode hex="2570"/>
  <outline>
    <contour>
      <point x="1110" y="554" type="curve" smooth="yes"/>
      <point x="1290" y="554" type="line"/>
      <point x="1290" y="734" type="line"/>
      <point x="1110" y="734" type="line" smooth="yes"/>
      <point x="848" y="734"/>
      <point x="690" y="892"/>
      <point x="690" y="1154" type="curve" smooth="yes"/>
      <point x="690" y="1944" type="line"/>
      <point x="510" y="1944" type="line"/>
      <point x="510" y="1154" type="line" smooth="yes"/>
      <point x="510" y="786"/>
      <point x="742" y="554"/>
    </contour>
  </outline>
</glyph>
<glyph name="boxLightLeft" format="2">
  <advance width="1200"/>
  <unicode hex="2574"/>
  <outline>
    <contour>
      <point x="-90" y="554" type="line"/>
      <point x="690" y="554" type="line"/>
      <point x="690" y="734" type="line"/>
      <point x="-90" y="734" type="line"/>
    </contour>
  </outline>
</glyph>
<glyph name="boxHeavyLeft" format="2">
  <advance width="1200"/>
  <unicode hex="2578"/>
  <outline>
    <contour>
      <point x="-90" y="482" type="line"/>
      <point x="690" y="482" type="line"/>
      <point x="690" y="806" type="line"/>
      <point x="-90" y="806" type="line"/>
    </contour>
  </outline>
</glyph>
<glyph name="boxHeavyRight" format="2">
  <advance width="1200"/>
  <unicode hex="257A"/>
  <outline>
    <contour>
      <point x="510" y="482" type="line"/>
      <point x="1290" y="482" type="line"/>
      <point x="1290" y="806" type="line"/>
      <point x="510" y="806" type="line"/>
    </contour>
  </outline>
</glyph>
<glyph name="boxHeavyLeftAndLightRight" format="2">
  <advance width="1200"/>
  <unicode hex="257E"/>
  <outline>
    <contour>
      <point x="-90" y="482" type="line"/>
      <point x="690" y="482" type="line"/>
      <point x="690" y="554" type="line"/>
      <point x="1290" y="554" type="line"/>
      <point x="1290" y="734" type="line"/>
      <point x="690" y="734" type="line"/>
      <point x="690" y="806" type="line"/>
      <point x="-90" y="806" type="line"/>
    </contour>
  </outline>
</glyph>
<glyph name="lowerThreeEighthsBlock" format="2">
  <advance width="1200"/>
  <unicode hex="2583"/>
  <outline>
    <contour>
      <point x="0" y="-656" type="line"/>
      <point x="1200" y="-656" type="line"/>
      <point x="1200" y="319" type="line"/>
      <point x="0" y="319" type="line"/>
    </contour>
  </outline>
</glyph>
<glyph name="leftOneEighthBlock" format="2">
  <advance width="1200"/>
  <unicode hex="258F"/>
  <outline>
    <contour>
      <point x="0" y="-656" type="line"/>
      <point x="150" y="-656" type="line"/>
      <point x="150" y="1944" type="line"/>
      <point x="0" y="1944" type="line"/>
    </contour>
  </outline>
</glyph>
<glyph name="shadelight" format="2">
  <advance width="1200"/>
  <unicode hex="2591"/>
  <outline>
    <contour>
      <point x="1062" y="1717" type="line"/>
      <point x="1152" y="1717" type="line"/>
      <point x="1152" y="1807" type="line"/>
      <point x="1062" y="1807" type="line"/>
    </contour>
    <contour>
      <point x="48" y="-608" type="line"/>
      <point x="138" y="-608" type="line"/>
      <point x="138" y="-518" type="line"/>
      <point x="48" y="-518" type="line"/>
    </contour>
    <contour>
      <point x="48" y="-250" type="line"/>
      <point x="138" y="-250" type="line"/>
      <point x="138" y="-160" type="line"/>
      <point x="48" y="-160" type="line"/>
    </contour>
    <contour>
      <point x="252" y="-429" type="line"/>
      <point x="342" y="-429" type="line"/>
      <point x="342" y="-339" type="line"/>
      <point x="252" y="-339" type="line"/>
    </contour>
    <contour>
      <point x="454" y="-608" type="line"/>
      <point x="544" y="-608" type="line"/>
      <point x="544" y="-518" type="line"/>
      <point x="454" y="-518" type="line"/>
    </contour>
    <contour>
      <point x="48" y="107" type="line"/>
      <point x="138" y="107" type="line"/>
      <point x="138" y="197" type="line"/>
      <point x="48" y="197" type="line"/>
    </contour>
    <contour>
      <point x="252" y="-71" type="line"/>
      <point x="342" y="-71" type="line"/>
      <point x="342" y="19" type="line"/>
      <point x="252" y="19" type="line"/>
    </contour>
    <contour>
      <point x="454" y="-250" type="line"/>
      <point x="544" y="-250" type="line"/>
      <point x="544" y="-160" type="line"/>
      <point x="454" y="-160" type="line"/>
    </contour>
    <contour>
      <point x="657" y="-429" type="line"/>
      <point x="747" y="-429" type="line"/>
      <point x="747" y="-339" type="line"/>
      <point x="657" y="-339" type="line"/>
    </contour>
    <contour>
      <point x="859" y="-608" type="line"/>
      <point x="949" y="-608" type="line"/>
      <point x="949" y="-518" type="line"/>
      <point x="859" y="-518" type="line"/>
    </contour>
    <contour>
      <point x="48" y="465" type="line"/>
      <point x="138" y="465" type="line"/>
      <point x="138" y="555" type="line"/>
      <point x="48" y="555" type="line"/>
    </contour>
    <contour>
      <point x="252" y="286" type="line"/>
      <point x="342" y="286" type="line"/>
      <point x="342" y="376" type="line"/>
      <point x="252" y="376" type="line"/>
    </contour>
    <contour>
      <point x="454" y="107" type="line"/>
      <point x="544" y="107" type="line"/>
      <point x="544" y="197" type="line"/>
      <point x="454" y="197" type="line"/>
    </contour>
    <contour>
      <point x="657" y="-71" type="line"/>
      <point x="747" y="-71" type="line"/>
      <point x="747" y="19" type="line"/>
      <point x="657" y="19" type="line"/>
    </contour>
    <contour>
      <point x="859" y="-250" type="line"/>
      <point x="949" y="-250" type="line"/>
      <point x="949" y="-160" type="line"/>
      <point x="859" y="-160" type="line"/>
    </contour>
    <contour>
      <point x="1062" y="-429" type="line"/>
      <point x="1152" y="-429" type="line"/>
      <point x="1152" y="-339" type="line"/>
      <point x="1062" y="-339" type="line"/>
    </contour>
    <contour>
      <point x="48" y="823" type="line"/>
      <point x="138" y="823" type="line"/>
      <point x="138" y="913" type="line"/>
      <point x="48" y="913" type="line"/>
    </contour>
    <contour>
      <point x="252" y="644" type="line"/>
      <point x="342" y="644" type="line"/>
      <point x="342" y="734" type="line"/>
      <point x="252" y="734" type="line"/>
    </contour>
    <contour>
      <point x="454" y="465" type="line"/>
      <point x="544" y="465" type="line"/>
      <point x="544" y="555" type="line"/>
      <point x="454" y="555" type="line"/>
    </contour>
    <contour>
      <point x="657" y="286" type="line"/>
      <point x="747" y="286" type="line"/>
      <point x="747" y="376" type="line"/>
      <point x="657" y="376" type="line"/>
    </contour>
    <contour>
      <point x="859" y="107" type="line"/>
      <point x="949" y="107" type="line"/>
      <point x="949" y="197" type="line"/>
      <point x="859" y="197" type="line"/>
    </contour>
    <contour>
      <point x="1062" y="-71" type="line"/>
      <point x="1152" y="-71" type="line"/>
      <point x="1152" y="19" type="line"/>
      <point x="1062" y="19" type="line"/>
    </contour>
    <contour>
      <point x="48" y="1181" type="line"/>
      <point x="138" y="1181" type="line"/>
      <point x="138" y="1271" type="line"/>
      <point x="48" y="1271" type="line"/>
    </contour>
    <contour>
      <point x="252" y="1002" type="line"/>
      <point x="342" y="1002" type="line"/>
      <point x="342" y="1092" type="line"/>
      <point x="252" y="1092" type="line"/>
    </contour>
    <contour>
      <point x="454" y="823" type="line"/>
      <point x="544" y="823" type="line"/>
      <point x="544" y="913" type="line"/>
      <point x="454" y="913" type="line"/>
    </contour>
    <contour>
      <point x="657" y="644" type="line"/>
      <point x="747" y="644" type="line"/>
      <point x="747" y="734" type="line"/>
      <point x="657" y="734" type="line"/>
    </contour>
    <contour>
      <point x="859" y="465" type="line"/>
      <point x="949" y="465" type="line"/>
      <point x="949" y="555" type="line"/>
      <point x="859" y="555" type="line"/>
    </contour>
    <contour>
      <point x="1062" y="286" type="line"/>
      <point x="1152" y="286" type="line"/>
      <point x="1152" y="376" type="line"/>
      <point x="1062" y="376" type="line"/>
    </contour>
    <contour>
      <point x="48" y="1538" type="line"/>
      <point x="138" y="1538" type="line"/>
      <point x="138" y="1628" type="line"/>
      <point x="48" y="1628" type="line"/>
    </contour>
    <contour>
      <point x="252" y="1359" type="line"/>
      <point x="342" y="1359" type="line"/>
      <point x="342" y="1449" type="line"/>
      <point x="252" y="1449" type="line"/>
    </contour>
    <contour>
      <point x="454" y="1180" type="line"/>
      <point x="544" y="1180" type="line"/>
      <point x="544" y="1270" type="line"/>
      <point x="454" y="1270" type="line"/>
    </contour>
    <contour>
      <point x="657" y="1001" type="line"/>
      <point x="747" y="1001" type="line"/>
      <point x="747" y="1091" type="line"/>
      <point x="657" y="1091" type="line"/>
    </contour>
    <contour>
      <point x="859" y="823" type="line"/>
      <point x="949" y="823" type="line"/>
      <point x="949" y="913" type="line"/>
      <point x="859" y="913" type="line"/>
    </contour>
    <contour>
      <point x="1062" y="644" type="line"/>
      <point x="1152" y="644" type="line"/>
      <point x="1152" y="734" type="line"/>
      <point x="1062" y="734" type="line"/>
    </contour>
    <contour>
      <point x="252" y="1717" type="line"/>
      <point x="342" y="1717" type="line"/>
      <point x="342" y="1807" type="line"/>
      <point x="252" y="1807" type="line"/>
    </contour>
    <contour>
      <point x="454" y="1538" type="line"/>
      <point x="544" y="1538" type="line"/>
      <point x="544" y="1628" type="line"/>
      <point x="454" y="1628" type="line"/>
    </contour>
    <contour>
      <point x="657" y="1360" type="line"/>
      <point x="747" y="1360" type="line"/>
      <point x="747" y="1450" type="line"/>
      <point x="657" y="1450" type="line"/>
    </contour>
    <contour>
      <point x="859" y="1180" type="line"/>
      <point x="949" y="1180" type="line"/>
      <point x="949" y="1270" type="line"/>
      <point x="859" y="1270" type="line"/>
    </contour>
    <contour>
      <point x="1062" y="1001" type="line"/>
      <point x="1152" y="1001" type="line"/>
      <point x="1152" y="1091" type="line"/>
      <point x="1062" y="1091" type="line"/>
    </contour>
    <contour>
      <point x="657" y="1717" type="line"/>
      <point x="747" y="1717" type="line"/>
      <point x="747" y="1807" type="line"/>
      <point x="657" y="1807" type="line"/>
    </contour>
    <contour>
      <point x="859" y="1538" type="line"/>
      <point x="949" y="1538" type="line"/>
      <point x="949" y="1628" type="line"/>
      <point x="859" y="1628" type="line"/>
    </contour>
    <contour>
      <point x="1062" y="1360" type="line"/>
      <point x="1152" y="1360" type="line"/>
      <point x="1152" y="1450" type="line"/>
      <point x="1062" y="1450" type="line"/>
    </contour>
  </outline>
</glyph>
<glyph name="shadedark" format="2">
  <advance width="1200"/>
  <unicode hex="2593"/>
  <outline>
    <contour>
      <point x="-6" y="-608" type="line"/>
      <point x="1206" y="-608" type="line"/>
      <point x="1206" y="1896" type="line"/>
      <point x="-6" y="1896" type="line"/>
    </contour>
    <contour>
      <point x="42" y="-608" type="line"/>
      <point x="42" y="-494" type="line"/>
      <point x="156" y="-494" type="line"/>
      <point x="156" y="-608" type="line"/>
    </contour>
    <contour>
      <point x="42" y="-250" type="line"/>
      <point x="42" y="-136" type="line"/>
      <point x="156" y="-136" type="line"/>
      <point x="156" y="-250" type="line"/>
    </contour>
    <contour>
      <point x="247" y="-429" type="line"/>
      <point x="247" y="-315" type="line"/>
      <point x="361" y="-315" type="line"/>
      <point x="361" y="-429" type="line"/>
    </contour>
    <contour>
      <point x="441" y="-608" type="line"/>
      <point x="441" y="-494" type="line"/>
      <point x="555" y="-494" type="line"/>
      <point x="555" y="-608" type="line"/>
    </contour>
    <contour>
      <point x="42" y="107" type="line"/>
      <point x="42" y="221" type="line"/>
      <point x="156" y="221" type="line"/>
      <point x="156" y="107" type="line"/>
    </contour>
    <contour>
      <point x="247" y="-71" type="line"/>
      <point x="247" y="43" type="line"/>
      <point x="361" y="43" type="line"/>
      <point x="361" y="-71" type="line"/>
    </contour>
    <contour>
      <point x="441" y="-250" type="line"/>
      <point x="441" y="-136" type="line"/>
      <point x="555" y="-136" type="line"/>
      <point x="555" y="-250" type="line"/>
    </contour>
    <contour>
      <point x="646" y="-429" type="line"/>
      <point x="646" y="-315" type="line"/>
      <point x="760" y="-315" type="line"/>
      <point x="760" y="-429" type="line"/>
    </contour>
    <contour>
      <point x="839" y="-608" type="line"/>
      <point x="839" y="-494" type="line"/>
      <point x="953" y="-494" type="line"/>
      <point x="953" y="-608" type="line"/>
    </contour>
    <contour>
      <point x="42" y="465" type="line"/>
      <point x="42" y="579" type="line"/>
      <point x="156" y="579" type="line"/>
      <point x="156" y="465" type="line"/>
    </contour>
    <contour>
      <point x="247" y="286" type="line"/>
      <point x="247" y="400" type="line"/>
      <point x="361" y="400" type="line"/>
      <point x="361" y="286" type="line"/>
    </contour>
    <contour>
      <point x="441" y="107" type="line"/>
      <point x="441" y="221" type="line"/>
      <point x="555" y="221" type="line"/>
      <point x="555" y="107" type="line"/>
    </contour>
    <contour>
      <point x="646" y="-71" type="line"/>
      <point x="646" y="43" type="line"/>
      <point x="760" y="43" type="line"/>
      <point x="760" y="-71" type="line"/>
    </contour>
    <contour>
      <point x="839" y="-250" type="line"/>
      <point x="839" y="-136" type="line"/>
      <point x="953" y="-136" type="line"/>
      <point x="953" y="-250" type="line"/>
    </contour>
    <contour>
      <point x="1044" y="-429" type="line"/>
      <point x="1044" y="-315" type="line"/>
      <point x="1158" y="-315" type="line"/>
      <point x="1158" y="-429" type="line"/>
    </contour>
    <contour>
      <point x="42" y="823" type="line"/>
      <point x="42" y="937" type="line"/>
      <point x="156" y="937" type="line"/>
      <point x="156" y="823" type="line"/>
    </contour>
    <contour>
      <point x="247" y="644" type="line"/>
      <point x="247" y="758" type="line"/>
      <point x="361" y="758" type="line"/>
      <point x="361" y="644" type="line"/>
    </contour>
    <contour>
      <point x="441" y="465" type="line"/>
      <point x="441" y="579" type="line"/>
      <point x="555" y="579" type="line"/>
      <point x="555" y="465" type="line"/>
    </contour>
    <contour>
      <point x="646" y="286" type="line"/>
      <point x="646" y="400" type="line"/>
      <point x="760" y="400" type="line"/>
      <point x="760" y="286" type="line"/>
    </contour>
    <contour>
      <point x="839" y="107" type="line"/>
      <point x="839" y="221" type="line"/>
      <point x="953" y="221" type="line"/>
      <point x="953" y="107" type="line"/>
    </contour>
    <contour>
      <point x="1044" y="-71" type="line"/>
      <point x="1044" y="43" type="line"/>
      <point x="1158" y="43" type="line"/>
      <point x="1158" y="-71" type="line"/>
    </contour>
    <contour>
      <point x="42" y="1181" type="line"/>
      <point x="42" y="1295" type="line"/>
      <point x="156" y="1295" type="line"/>
      <point x="156" y="1181" type="line"/>
    </contour>
    <contour>
      <point x="247" y="1002" type="line"/>
      <point x="247" y="1116" type="line"/>
      <point x="361" y="1116" type="line"/>
      <point x="361" y="1002" type="line"/>
    </contour>
    <contour>
      <point x="441" y="823" type="line"/>
      <point x="441" y="937" type="line"/>
      <point x="555" y="937" type="line"/>
      <point x="555" y="823" type="line"/>
    </contour>
    <contour>
      <point x="646" y="644" type="line"/>
      <point x="646" y="758" type="line"/>
      <point x="760" y="758" type="line"/>
      <point x="760" y="644" type="line"/>
    </contour>
    <contour>
      <point x="839" y="465" type="line"/>
      <point x="839" y="579" type="line"/>
      <point x="953" y="579" type="line"/>
      <point x="953" y="465" type="line"/>
    </contour>
    <contour>
      <point x="1044" y="286" type="line"/>
      <point x="1044" y="400" type="line"/>
      <point x="1158" y="400" type="line"/>
      <point x="1158" y="286" type="line"/>
    </contour>
    <contour>
      <point x="42" y="1538" type="line"/>
      <point x="42" y="1652" type="line"/>
      <point x="156" y="1652" type="line"/>
      <point x="156" y="1538" type="line"/>
    </contour>
    <contour>
      <point x="247" y="1359" type="line"/>
      <point x="247" y="1473" type="line"/>
      <point x="361" y="1473" type="line"/>
      <point x="361" y="1359" type="line"/>
    </contour>
    <contour>
      <point x="441" y="1180" type="line"/>
      <point x="441" y="1294" type="line"/>
      <point x="555" y="1294" type="line"/>
      <point x="555" y="1180" type="line"/>
    </contour>
    <contour>
      <point x="646" y="1002" type="line"/>
      <point x="646" y="1116" type="line"/>
      <point x="760" y="1116" type="line"/>
      <point x="760" y="1002" type="line"/>
    </contour>
    <contour>
      <point x="839" y="823" type="line"/>
      <point x="839" y="937" type="line"/>
      <point x="953" y="937" type="line"/>
      <point x="953" y="823" type="line"/>
    </contour>
    <contour>
      <point x="1044" y="644" type="line"/>
      <point x="1044" y="758" type="line"/>
      <point x="1158" y="758" type="line"/>
      <point x="1158" y="644" type="line"/>
    </contour>
    <contour>
      <point x="247" y="1717" type="line"/>
      <point x="247" y="1831" type="line"/>
      <point x="361" y="1831" type="line"/>
      <point x="361" y="1717" type="line"/>
    </contour>
    <contour>
      <point x="441" y="1538" type="line"/>
      <point x="441" y="1652" type="line"/>
      <point x="555" y="1652" type="line"/>
      <point x="555" y="1538" type="line"/>
    </contour>
    <contour>
      <point x="646" y="1359" type="line"/>
      <point x="646" y="1473" type="line"/>
      <point x="760" y="1473" type="line"/>
      <point x="760" y="1359" type="line"/>
    </contour>
    <contour>
      <point x="839" y="1181" type="line"/>
      <point x="839" y="1295" type="line"/>
      <point x="953" y="1295" type="line"/>
      <point x="953" y="1181" type="line"/>
    </contour>
    <contour>
      <point x="1044" y="1002" type="line"/>
      <point x="1044" y="1116" type="line"/>
      <point x="1158" y="1116" type="line"/>
      <point x="1158" y="1002" type="line"/>
    </contour>
    <contour>
      <point x="646" y="1717" type="line"/>
      <point x="646" y="1831" type="line"/>
      <point x="760" y="1831" type="line"/>
      <point x="760" y="1717" type="line"/>
    </contour>
    <contour>
      <point x="839" y="1538" type="line"/>
      <point x="839" y="1652" type="line"/>
      <point x="953" y="1652" type="line"/>
      <point x="953" y="1538" type="line"/>
    </contour>
    <contour>
      <point x="1044" y="1359" type="line"/>
      <point x="1044" y="1473" type="line"/>
      <point x="1158" y="1473" type="line"/>
      <point x="1158" y="1359" type="line"/>
    </contour>
    <contour>
      <point x="1044" y="1717" type="line"/>
      <point x="1044" y="1831" type="line"/>
      <point x="1158" y="1831" type="line"/>
      <point x="1158" y="1717" type="line"/>
    </contour>
  </outline>
</glyph>
<glyph name="whiteSquare" format="2">
  <advance width="1200"/>
  <unicode hex="25A1"/>
  <outline>
    <contour>
      <point x="96" y="212" type="line"/>
      <point x="1104" y="212" type="line"/>
      <point x="1104" y="1220" type="line"/>
      <point x="96" y="1220" type="line"/>
    </contour>
    <contour>
      <point x="220" y="333" type="line"/>
      <point x="220" y="1099" type="line"/>
      <point x="980" y="1099" type="line"/>
      <point x="980" y="333" type="line"/>
    </contour>
  </outline>
</glyph>
<glyph name="blackSmallSquare" format="2">
  <advance width="1200"/>
  <unicode hex="25AA"/>
  <outline>
    <contour>
      <point x="338" y="321" type="line"/>
      <point x="863" y="321" type="line"/>
      <point x="863" y="846" type="line"/>
      <point x="338" y="846" type="line"/>
    </contour>
  </outline>
</glyph>
<glyph name="filledRect" format="2">
  <advance width="1200"/>
  <unicode hex="25AC"/>
  <outline>
    <contour>
      <point x="58" y="407" type="line"/>
      <point x="1142" y="407" type="line"/>
      <point x="1142" y="664" type="line"/>
      <point x="58" y="664" type="line"/>
    </contour>
  </outline>
</glyph>
<glyph name="upBlackTriangle" format="2">
  <advance width="1200"/>
  <unicode hex="25B2"/>
  <outline>
    <contour>
      <point x="90" y="190" type="line"/>
      <point x="1110" y="190" type="line"/>
      <point x="600" y="1290" type="line"/>
    </contour>
  </outline>
</glyph>
<glyph name="rightBlackPointer" format="2">
  <advance width="1200"/>
  <unicode hex="25BA"/>
  <outline>
    <contour>
      <point x="70" y="206" type="line"/>
      <point x="1170" y="716" type="line"/>
      <point x="70" y="1226" type="line"/>
    </contour>
  </outline>
</glyph>
<glyph name="fisheye" format="2">
  <advance width="1200"/>
  <unicode hex="25C9"/>
  <outline>
    <contour>
      <point x="600" y="160" type="curve" smooth="yes"/>
      <point x="919" y="160"/>
      <point x="1156" y="397"/>
      <point x="1156" y="716" type="curve" smooth="yes"/>
      <point x="1156" y="1036"/>
      <point x="920" y="1272"/>
      <point x="600" y="1272" type="curve" smooth="yes"/>
      <point x="282" y="1272"/>
      <point x="44" y="1035"/>
      <point x="44" y="716" type="curve" smooth="yes"/>
      <point x="44" y="398"/>
      <point x="282" y="160"/>
    </contour>
    <contour>
      <point x="600" y="270" type="curve" smooth="yes"/>
      <point x="347" y="270"/>
      <point x="158" y="461"/>
      <point x="158" y="716" type="curve" smooth="yes"/>
      <point x="158" y="971"/>
      <point x="347" y="1162"/>
      <point x="600" y="1162" type="curve" smooth="yes"/>
      <point x="853" y="1162"/>
      <point x="1042" y="971"/>
      <point x="1042" y="716" type="curve" smooth="yes"/>
      <point x="1042" y="461"/>
      <point x="853" y="270"/>
    </contour>
    <contour>
      <point x="600" y="400" type="curve" smooth="yes"/>
      <point x="778" y="400"/>
      <point x="908" y="534"/>
      <point x="908" y="716" type="curve" smooth="yes"/>
      <point x="908" y="898"/>
      <point x="778" y="1032"/>
      <point x="600" y="1032" type="curve" smooth="yes"/>
      <point x="422" y="1032"/>
      <point x="292" y="898"/>
      <point x="292" y="716" type="curve" smooth="yes"/>
      <point x="292" y="534"/>
      <point x="422" y="400"/>
    </contour>
  </outline>
</glyph>
<glyph name="inverseWhiteCircle" format="2">
  <advance width="1200"/>
  <unicode hex="25D9"/>
  <outline>
    <contour>
      <point x="41" y="157" type="line"/>
      <point x="1159" y="157" type="line"/>
      <point x="1159" y="1275" type="line"/>
      <point x="41" y="1275" type="line"/>
    </contour>
    <contour>
      <point x="600" y="182" type="curve" smooth="yes"/>
      <point x="297" y="182"/>
      <point x="66" y="413"/>
      <point x="66" y="716" type="curve" smooth="yes"/>
      <point x="66" y="1019"/>
      <point x="297" y="1250"/>
      <point x="600" y="1250" type="curve" smooth="yes"/>
      <point x="904" y="1250"/>
      <point x="1134" y="1020"/>
      <point x="1134" y="716" type="curve" smooth="yes"/>
      <point x="1134" y="413"/>
      <point x="904" y="182"/>
    </contour>
    <contour>
      <point x="600" y="300" type="curve" smooth="yes"/>
      <point x="836" y="300"/>
      <point x="1012" y="478"/>
      <point x="1012" y="716" type="curve" smooth="yes"/>
      <point x="1012" y="954"/>
      <point x="836" y="1132"/>
      <point x="600" y="1132" type="curve" smooth="yes"/>
      <point x="364" y="1132"/>
      <point x="188" y="954"/>
      <point x="188" y="716" type="curve" smooth="yes"/>
      <point x="188" y="478"/>
      <point x="364" y="300"/>
    </contour>
  </outline>
</glyph>
<glyph name="Ohorn.alt" format="2">
  <advance width="1200"/>
  <anchor x="607" y="1432" name="top"/>
  <outline>
    <contour>
      <point x="599" y="-31" type="curve" smooth="yes"/>
      <point x="923" y="-31"/>
      <point x="1122" y="247"/>
      <point x="1122" y="697" type="curve" smooth="yes"/>
      <point x="1122" y="735" type="line" smooth="yes"/>
      <point x="1122" y="1082"/>
      <point x="996" y="1319"/>
      <point x="765" y="1412" type="curve"/>
      <point x="753" y="1349" type="line"/>
      <point x="867" y="1349" type="line" smooth="yes"/>
      <point x="1070" y="1349"/>
      <point x="1186" y="1435"/>
      <point x="1186" y="1579" type="curve" smooth="yes"/>
      <point x="1186" y="1631"/>
      <point x="1172" y="1682"/>
      <point x="1146" y="1733" type="curve"/>
      <point x="962" y="1662" type="line"/>
      <point x="980" y="1625"/>
      <point x="991" y="1589"/>
      <point x="991" y="1553" type="curve" smooth="yes"/>
      <point x="991" y="1481"/>
      <point x="942" y="1446"/>
      <point x="840" y="1446" type="curve" smooth="yes"/>
      <point x="766" y="1446"/>
      <point x="695" y="1463"/>
      <point x="607" y="1463" type="curve" smooth="yes"/>
      <point x="275" y="1463"/>
      <point x="77" y="1186"/>
      <point x="77" y="735" type="curve" smooth="yes"/>
      <point x="77" y="697" type="line" smooth="yes"/>
      <point x="77" y="247"/>
      <point x="276" y="-31"/>
    </contour>
    <contour>
      <point x="599" y="145" type="curve" smooth="yes"/>
      <point x="385" y="145"/>
      <point x="265" y="340"/>
      <point x="265" y="692" type="curve" smooth="yes"/>
      <point x="265" y="740" type="line" smooth="yes"/>
      <point x="265" y="1092"/>
      <point x="390" y="1292"/>
      <point x="607" y="1292" type="curve" smooth="yes"/>
      <point x="822" y="1292"/>
      <point x="933" y="1102"/>
      <point x="933" y="744" type="curve" smooth="yes"/>
      <point x="933" y="692" type="line" smooth="yes"/>
      <point x="933" y="340"/>
      <point x="813" y="145"/>
    </contour>
  </outline>
</glyph>
<glyph name="Uhorn.alt" format="2">
  <advance width="1200"/>
  <outline>
    <contour>
      <point x="530" y="-32" type="curve" smooth="yes"/>
      <point x="786" y="-32"/>
      <point x="957" y="148"/>
      <point x="957" y="409" type="curve" smooth="yes"/>
      <point x="957" y="1400" type="line"/>
      <point x="828" y="1327" type="line"/>
      <point x="897" y="1327" type="line" smooth="yes"/>
      <point x="1064" y="1327"/>
      <point x="1185" y="1417"/>
      <point x="1185" y="1569" type="curve" smooth="yes"/>
      <point x="1185" y="1623"/>
      <point x="1175" y="1679"/>
      <point x="1154" y="1736" type="curve"/>
      <point x="958" y="1676" type="line"/>
      <point x="976" y="1625"/>
      <point x="985" y="1582"/>
      <point x="985" y="1538" type="curve" smooth="yes"/>
      <point x="985" y="1466"/>
      <point x="941" y="1432"/>
      <point x="853" y="1432" type="curve" smooth="yes"/>
      <point x="775" y="1432" type="line"/>
      <point x="775" y="420" type="line" smooth="yes"/>
      <point x="775" y="250"/>
      <point x="684" y="144"/>
      <point x="531" y="144" type="curve" smooth="yes"/>
      <point x="377" y="144"/>
      <point x="286" y="250"/>
      <point x="286" y="420" type="curve" smooth="yes"/>
      <point x="286" y="1432" type="line"/>
      <point x="103" y="1432" type="line"/>
      <point x="103" y="409" type="line" smooth="yes"/>
      <point x="103" y="148"/>
      <point x="274" y="-32"/>
    </contour>
  </outline>
</glyph>
<glyph name="circumflexcomb_acutecomb" format="2">
  <anchor x="0" y="1047" name="_top"/>
  <outline>
    <contour>
      <point x="-382" y="1163" type="line"/>
      <point x="-182" y="1163" type="line"/>
      <point x="19" y="1415" type="line"/>
      <point x="-18" y="1415" type="line"/>
      <point x="183" y="1163" type="line"/>
      <point x="383" y="1163" type="line"/>
      <point x="383" y="1174" type="line"/>
      <point x="90" y="1509" type="line"/>
      <point x="-90" y="1509" type="line"/>
      <point x="-382" y="1174" type="line"/>
    </contour>
    <contour>
      <point x="204" y="1464" type="line"/>
      <point x="342" y="1464" type="line"/>
      <point x="558" y="1824" type="line"/>
      <point x="558" y="1834" type="line"/>
      <point x="367" y="1834" type="line"/>
      <point x="204" y="1475" type="line"/>
    </contour>
  </outline>
</glyph>
<glyph name="circumflexcomb_gravecomb" format="2">
  <anchor x="0" y="1047" name="_top"/>
  <outline>
    <contour>
      <point x="-382" y="1163" type="line"/>
      <point x="-182" y="1163" type="line"/>
      <point x="19" y="1415" type="line"/>
      <point x="-18" y="1415" type="line"/>
      <point x="183" y="1163" type="line"/>
      <point x="383" y="1163" type="line"/>
      <point x="383" y="1174" type="line"/>
      <point x="90" y="1509" type="line"/>
      <point x="-90" y="1509" type="line"/>
      <point x="-382" y="1174" type="line"/>
    </contour>
    <contour>
      <point x="323" y="1456" type="line"/>
      <point x="466" y="1456" type="line"/>
      <point x="466" y="1466" type="line"/>
      <point x="289" y="1826" type="line"/>
      <point x="95" y="1826" type="line"/>
      <point x="95" y="1815" type="line"/>
    </contour>
  </outline>
</glyph>
<glyph name="circumflexcomb_tildecomb" format="2">
  <anchor x="0" y="1047" name="_top"/>
  <outline>
    <contour>
      <point x="-382" y="1163" type="line"/>
      <point x="-182" y="1163" type="line"/>
      <point x="19" y="1415" type="line"/>
      <point x="-18" y="1415" type="line"/>
      <point x="183" y="1163" type="line"/>
      <point x="383" y="1163" type="line"/>
      <point x="383" y="1174" type="line"/>
      <point x="90" y="1509" type="line"/>
      <point x="-90" y="1509" type="line"/>
      <point x="-382" y="1174" type="line"/>
    </contour>
    <contour>
      <point x="163" y="1613" type="curve" smooth="yes"/>
      <point x="282" y="1613"/>
      <point x="354" y="1703"/>
      <point x="354" y="1857" type="curve" smooth="yes"/>
      <point x="354" y="1911" type="line"/>
      <point x="204" y="1911" type="line"/>
      <point x="204" y="1858" type="line" smooth="yes"/>
      <point x="204" y="1792"/>
      <point x="181" y="1756"/>
      <point x="141" y="1756" type="curve" smooth="yes"/>
      <point x="106" y="1756"/>
      <point x="77" y="1773"/>
      <point x="17" y="1831" type="curve" smooth="yes"/>
      <point x="-42" y="1888"/>
      <point x="-87" y="1913"/>
      <point x="-156" y="1913" type="curve" smooth="yes"/>
      <point x="-277" y="1913"/>
      <point x="-353" y="1820"/>
      <point x="-353" y="1669" type="curve" smooth="yes"/>
      <point x="-353" y="1615" type="line"/>
      <point x="-203" y="1615" type="line"/>
      <point x="-203" y="1667" type="line" smooth="yes"/>
      <point x="-203" y="1734"/>
      <point x="-179" y="1770"/>
      <point x="-137" y="1770" type="curve" smooth="yes"/>
      <point x="-102" y="1770"/>
      <point x="-78" y="1755"/>
      <point x="-14" y="1694" type="curve" smooth="yes"/>
      <point x="44" y="1638"/>
      <point x="93" y="1613"/>
    </contour>
  </outline>
</glyph>
<glyph name="uhorn.alt" format="2">
  <advance width="1200"/>
  <outline>
    <contour>
      <point x="484" y="-32" type="curve" smooth="yes"/>
      <point x="617" y="-32"/>
      <point x="714" y="41"/>
      <point x="777" y="155" type="curve"/>
      <point x="784" y="155" type="line"/>
      <point x="784" y="0" type="line"/>
      <point x="953" y="0" type="line"/>
      <point x="953" y="1037" type="line"/>
      <point x="825" y="948" type="line"/>
      <point x="874" y="948" type="line" smooth="yes"/>
      <point x="1054" y="948"/>
      <point x="1174" y="1034"/>
      <point x="1174" y="1177" type="curve" smooth="yes"/>
      <point x="1174" y="1222"/>
      <point x="1167" y="1270"/>
      <point x="1153" y="1314" type="curve"/>
      <point x="956" y="1264" type="line"/>
      <point x="969" y="1222"/>
      <point x="976" y="1180"/>
      <point x="976" y="1142" type="curve" smooth="yes"/>
      <point x="976" y="1081"/>
      <point x="942" y="1047"/>
      <point x="869" y="1047" type="curve" smooth="yes"/>
      <point x="775" y="1047" type="line"/>
      <point x="775" y="427" type="line" smooth="yes"/>
      <point x="775" y="245"/>
      <point x="679" y="128"/>
      <point x="540" y="128" type="curve" smooth="yes"/>
      <point x="415" y="128"/>
      <point x="348" y="206"/>
      <point x="348" y="348" type="curve" smooth="yes"/>
      <point x="348" y="1047" type="line"/>
      <point x="170" y="1047" type="line"/>
      <point x="170" y="317" type="line" smooth="yes"/>
      <point x="170" y="99"/>
      <point x="291" y="-32"/>
    </contour>
  </outline>
</glyph>
